<svg xmlns="http://www.w3.org/2000/svg" width="70" height="70" viewBox="0 0 70 70"><defs><style>.a{fill:#003579;}.b{fill:#fff;}</style></defs><g transform="translate(0 0)"><rect class="a" width="70" height="70" rx="35" transform="translate(0 0)"/><path class="b" d="M24.573,21.542,19.722,16.69a1.167,1.167,0,0,0-.827-.341H18.1A10.117,10.117,0,1,0,16.35,18.1v.793a1.167,1.167,0,0,0,.341.827l4.851,4.851a1.163,1.163,0,0,0,1.65,0L24.568,23.2A1.173,1.173,0,0,0,24.573,21.542ZM10.121,16.35a6.228,6.228,0,1,1,6.228-6.228A6.225,6.225,0,0,1,10.121,16.35Z" transform="translate(23.974 22.532)"/></g></svg>