<svg id="instagram_3_" data-name="instagram(3)" xmlns="http://www.w3.org/2000/svg" width="22" height="22" viewBox="0 0 22 22">
  <path id="Rectangle-path" d="M5-1H15a6.007,6.007,0,0,1,6,6V15a6.007,6.007,0,0,1-6,6H5a6.007,6.007,0,0,1-6-6V5A6.007,6.007,0,0,1,5-1ZM15,19a4,4,0,0,0,4-4V5a4,4,0,0,0-4-4H5A4,4,0,0,0,1,5V15a4,4,0,0,0,4,4Z" transform="translate(1 1)" fill="#003579"/>
  <path id="Shape" d="M4-1a5.026,5.026,0,0,1,.735.054A5,5,0,0,1,6.248,8.466,5.022,5.022,0,0,1,4,9,5,5,0,0,1-.466,1.752,4.973,4.973,0,0,1,4-1ZM4,7a3,3,0,1,0-2.122-.879A2.982,2.982,0,0,0,4,7Z" transform="translate(7.043 6.957)" fill="#003579"/>
</svg>
