<?xml version="1.0" encoding="utf-8"?>
<!-- Generator: Adobe Illustrator 25.4.1, SVG Export Plug-In . SVG Version: 6.00 Build 0)  -->
<svg version="1.1" id="Layer_1" xmlns="http://www.w3.org/2000/svg" xmlns:xlink="http://www.w3.org/1999/xlink" x="0px" y="0px"
	 viewBox="0 0 262.7 118.3" style="enable-background:new 0 0 262.7 118.3;" xml:space="preserve">
<style type="text/css">
	.st0{fill:#FFFFFF;}
</style>
<path class="st0" d="M24.8,93.2c-1.1,0.4-2.4,0.1-3.2-0.9l-2.3-3c-0.6-0.7-1.5-1.1-2.5-1v2.9c0,1.1,0.7,1.2,1.7,1.4
	c0.1,0,0,0.5-0.1,0.5h-4.6c-0.1,0-0.2-0.5-0.1-0.5c0.8-0.1,1.3-0.4,1.3-1.4v-6.8c0-1-0.5-1.3-1.3-1.5c-0.1,0,0-0.5,0.1-0.5
	c0.6,0.1,1.2,0.1,1.7,0.1c1.1,0,2.2-0.1,2.9-0.1c2.3,0,3.8,0.9,3.8,2.8c0,1.5-1.2,2.7-2.7,2.7V88c0.6,0,1,0.2,1.7,1.1l2.3,2.9
	c0.3,0.4,0.7,0.7,1.3,0.8C24.9,92.7,24.8,93.1,24.8,93.2z M20.3,85.7c0.1-1.2-0.8-2.3-2-2.4c-0.1,0-0.3,0-0.4,0
	c-0.9,0-1.2,0.4-1.2,1.2v3.1h0.4C19.4,87.6,20.3,87.2,20.3,85.7z"/>
<path class="st0" d="M27.2,92.6c0.9-0.2,1.6-0.4,1.6-1.5v-6.7c0-1-0.6-1.2-1.3-1.4c-0.1,0,0-0.5,0.1-0.5c1.1,0.1,3,0.1,4,0.1
	c1.4,0,2.4-0.1,3.6-0.1c0.4,0,0.4,0.2,0.3,0.6l-0.4,1.4c0,0.2-0.4,0.2-0.5,0c-0.2-0.8-0.7-1.2-2.6-1.2c-1.1,0-1.4,0.3-1.4,1.1v2.5
	c0,0.4,0.2,0.5,0.5,0.5h0.3c1,0.1,2-0.1,2.9-0.7c0.2-0.1,0.5-0.1,0.3,0.2l-0.9,1.9c-0.1,0.3-0.3,0.2-0.5,0c-0.5-0.5-1.3-0.8-2-0.7
	h-0.2c-0.3,0-0.5,0.1-0.5,0.5v2.6c0,0.9,0.4,1.2,1.6,1.2c2.3,0,3.2-1,3.6-1.6c0.1-0.2,0.5-0.1,0.5,0.2c0,0.8-0.7,2.3-1.6,2.3
	S33,93,31.7,93s-3,0-4.4,0.1C27.1,93.1,27.1,92.6,27.2,92.6z"/>
<path class="st0" d="M42.3,89v2.2c0,1.1,0.7,1.2,1.7,1.4c0.1,0,0,0.5-0.1,0.5h-4.6c-0.1,0-0.2-0.5-0.1-0.5c0.8-0.1,1.3-0.4,1.3-1.4
	v-6.8c0-1-0.5-1.3-1.3-1.5c-0.1,0,0-0.5,0.1-0.5c0.6,0.1,1.2,0.1,1.8,0.1c1.1,0,2.1-0.1,2.8-0.1c2.4,0,4.3,0.9,4.3,3.2
	C48.2,88.4,45.7,89.5,42.3,89z M42.3,84.4v3.8c2.6,0.4,3.9-0.2,3.9-2.2c0.1-1.4-0.9-2.7-2.3-2.8c-0.1,0-0.2,0-0.4,0
	C42.6,83.2,42.3,83.6,42.3,84.4L42.3,84.4z"/>
<path class="st0" d="M52.5,89.1v-4.8c0.1-0.7-0.4-1.3-1.1-1.3c-0.1,0-0.1,0-0.2,0c-0.1,0,0-0.5,0.1-0.5h4.1c0.1,0,0.2,0.5,0.1,0.5
	c-0.7,0-1.2,0.5-1.2,1.2c0,0.1,0,0.1,0,0.2v4.8c0,2.1,1.2,3.1,2.8,3.1c1.5,0.1,2.9-1,3-2.6c0-0.2,0-0.3,0-0.5v-4.9
	c0-1-0.6-1.3-1.3-1.4c-0.1,0,0-0.5,0.1-0.5h3.4c0.1,0,0.2,0.5,0.1,0.5c-0.7,0-1.2,0.5-1.2,1.2c0,0.1,0,0.1,0,0.2v4.8
	c0.2,2.2-1.4,4.1-3.6,4.2c-0.2,0-0.4,0-0.6,0C54.9,93.3,52.5,92.2,52.5,89.1z M57,78.7c0.3-0.4,1.5,0.8,1.2,1l-2,1.5
	c-0.2,0.2-0.7-0.3-0.6-0.5L57,78.7z"/>
<path class="st0" d="M74.7,90c0,1.9-1.7,3.1-4.2,3.1c-0.7,0-1.6-0.1-2.7-0.1c-0.8,0-1.6,0-2.4,0.1c-0.1,0-0.2-0.5-0.1-0.6
	c0.9-0.2,1.6-0.4,1.6-1.5v-6.7c0-1-0.6-1.2-1.3-1.4c-0.1,0,0-0.5,0.1-0.5c0.6,0.1,1.2,0.1,1.8,0.1c1.2,0,2.1-0.1,2.8-0.1
	c2,0,3.6,0.8,3.6,2.5c0,1.1-0.8,2.1-1.9,2.3v0.1C73.4,87.3,74.6,88.4,74.7,90C74.7,89.9,74.7,90,74.7,90z M68.7,84.3V87h1.6
	c0.8,0.1,1.6-0.5,1.7-1.3c0-0.1,0-0.3,0-0.4c0.1-1.1-0.8-2.1-1.9-2.1c-0.1,0-0.2,0-0.3,0C68.9,83.2,68.6,83.5,68.7,84.3L68.7,84.3z
	 M72.7,90.3c0.1-1.3-0.9-2.4-2.2-2.5c-0.1,0-0.2,0-0.3,0h-1.6V91c0,0.8,0.4,1.2,1.7,1.2S72.7,91.9,72.7,90.3L72.7,90.3z"/>
<path class="st0" d="M77.6,92.6c0.9-0.2,1.6-0.4,1.6-1.5v-6.7c0-1.1-0.6-1.3-1.3-1.4c-0.1,0,0-0.5,0.1-0.5h4.2
	c0.1,0,0.2,0.5,0.1,0.5c-0.7,0-1.2,0.5-1.2,1.2c0,0.1,0,0.1,0,0.2v6.7c0,0.9,0.4,1.2,1.6,1.2c2.3,0,3.2-1,3.6-1.6
	c0.1-0.2,0.5-0.1,0.5,0.2c0,0.8-0.7,2.3-1.6,2.3s-1.7-0.1-3-0.1s-3,0-4.4,0.1C77.5,93.1,77.4,92.6,77.6,92.6z"/>
<path class="st0" d="M89.3,92.6c0.8-0.1,1.3-0.4,1.3-1.4v-6.9c0-1-0.5-1.3-1.3-1.4c-0.1,0,0-0.5,0.1-0.5h4.2c0.1,0,0.2,0.5,0.1,0.5
	c-0.7,0.1-1.3,0.3-1.3,1.4v6.9c0,1.1,0.6,1.3,1.3,1.4c0.1,0,0,0.5-0.1,0.5h-4.2C89.3,93.1,89.2,92.6,89.3,92.6z"/>
<path class="st0" d="M96.9,88c-0.1-3,2.2-5.6,5.3-5.8c0.2,0,0.4,0,0.6,0c1.8,0,3.3,0.6,3.1,1.1l-0.2,0.6c-0.6,1.6-1.1-0.5-3.8-0.5
	c-2.2,0-3.2,1.4-3.2,3.6c-0.1,2.5,1.8,4.7,4.3,4.8c0.1,0,0.2,0,0.3,0c0.9-0.1,1.7-0.3,2.4-0.7c0.1-0.1,0.4,0.3,0.3,0.4
	c-0.8,0.9-1.9,1.5-3.2,1.8C100.3,93.3,96.9,91.8,96.9,88z"/>
<path class="st0" d="M119.9,93.1h-4c-0.2,0-0.2-0.5,0-0.5c0.6-0.1,1.2-0.3,0.6-1.6l-0.2-0.4c-0.2-0.4-0.4-0.4-0.9-0.4h-3.1
	c-0.5,0-0.7,0-0.9,0.4l-0.2,0.4c-0.5,1.3,0,1.5,0.8,1.6c0.2,0,0.2,0.5,0,0.5h-3.3c-0.2,0-0.2-0.5,0-0.5c0.6-0.1,1-0.3,1.5-1.6
	l2.6-5.9c0.4-0.8,0.7-1.6,0.8-2.5c0-0.1,1.1-0.3,1.1-0.2l3.6,8.7c0.5,1.3,0.9,1.5,1.5,1.6C120.1,92.6,120.1,93.1,119.9,93.1z
	 M115.7,89.1l-1.8-4.2l-1.8,4.2c-0.1,0.2,0.1,0.2,0.3,0.2h2.9C115.5,89.3,115.8,89.3,115.7,89.1z"/>
<path class="st0" d="M127.2,92.6c0.9-0.2,1.6-0.4,1.6-1.5v-6.7c0-1-0.6-1.2-1.3-1.4c-0.1,0,0-0.5,0.1-0.5c0.6,0.1,1.3,0.1,1.9,0.1
	c1.2,0,2.2-0.1,3-0.1c3.7,0,5.7,2.2,5.7,5.1c0.1,3-2.2,5.5-5.2,5.6c-0.2,0-0.3,0-0.5,0c-0.7,0-1.7-0.1-2.8-0.1c-0.8,0-1.6,0-2.4,0.1
	C127.2,93.1,127.1,92.6,127.2,92.6z M136.4,88.4c0-2.9-1.6-5.2-4.3-5.2c-1.1,0-1.4,0.3-1.4,1.1v6.7c0,0.8,0.6,1.2,2,1.2
	C135.1,92.3,136.4,91,136.4,88.4z"/>
<path class="st0" d="M141.5,87.8c-0.1-3,2.2-5.5,5.2-5.6c0.1,0,0.2,0,0.3,0c2.9-0.1,5.4,2.2,5.5,5.1c0,0.1,0,0.2,0,0.3
	c0.1,3-2.2,5.5-5.2,5.6c-0.1,0-0.2,0-0.3,0c-2.9,0.1-5.4-2.2-5.5-5.1C141.5,88.1,141.5,87.9,141.5,87.8z M150.7,88.6
	c0-3.1-2.1-5.3-4.3-5.3c-1.3,0-3.1,0.9-3.1,3.7c0,3.1,2.1,5.3,4.2,5.3C148.9,92.3,150.7,91.4,150.7,88.6L150.7,88.6z"/>
<path class="st0" d="M169,93.1h-4c-0.1,0-0.2-0.5-0.1-0.5c0.6,0,1.1-0.5,1.1-1.2c0-0.1,0-0.1,0-0.2l-0.3-5.1l-2.5,5
	c-0.3,0.5-0.5,1-0.6,1.6c0,0.2-0.4,0.3-0.6,0.3c-0.2,0-0.4-0.1-0.5-0.3l-3.5-6.7l-0.2,5.2c-0.1,1.1,0.6,1.3,1.1,1.4
	c0.1,0,0,0.5-0.1,0.5h-3.1c-0.1,0-0.2-0.5-0.1-0.5c0.6-0.1,1.2-0.3,1.3-1.4l0.5-8.7c0-0.3,0.6-0.3,0.8,0l4.4,8.2l4.1-8.2
	c0.1-0.3,0.8-0.3,0.8,0l0.5,8.7c0.1,1.1,0.6,1.3,1.2,1.4C169.2,92.6,169.1,93.1,169,93.1z"/>
<path class="st0" d="M172.1,92.6c0.8-0.1,1.3-0.4,1.3-1.4v-6.9c0-1-0.5-1.3-1.3-1.4c-0.1,0,0-0.5,0.1-0.5h4.2c0.1,0,0.2,0.5,0.1,0.5
	c-0.6,0.1-1.2,0.3-1.2,1.4v6.9c0,1.1,0.6,1.3,1.2,1.4c0.1,0,0,0.5-0.1,0.5h-4.2C172.1,93.1,172,92.6,172.1,92.6z"/>
<path class="st0" d="M188.9,93l-7.2-7.6v5.8c0,1,0.6,1.2,1.5,1.4c0.1,0,0.1,0.5-0.1,0.5h-3.6c-0.1,0-0.2-0.5-0.1-0.5
	c0.6-0.2,1.2-0.3,1.2-1.4v-5.9c0.1-0.8-0.1-1.5-0.6-2.1c-0.1-0.1-0.2-0.2-0.3-0.3c0-0.2,0.1-0.3,0.3-0.3c0,0,0,0,0,0h1.1
	c0.1,0,0.3,0,0.4,0.1l7.1,7.5v-5.7c0-1.1-0.7-1.2-1.5-1.4c-0.1,0-0.1-0.5,0.1-0.5h3.6c0.1,0,0.2,0.5,0.1,0.5
	c-0.7,0.2-1.2,0.3-1.2,1.4v5.9c0,0.9,0,1.8,0.2,2.7c0.1,0.2-0.2,0.3-0.4,0.3C189.3,93.2,189.1,93.2,188.9,93z"/>
<path class="st0" d="M194,92.6c0.8-0.1,1.3-0.4,1.3-1.4v-6.9c0-1-0.5-1.3-1.3-1.4c-0.1,0,0-0.5,0.1-0.5h4.1c0.1,0,0.2,0.5,0.1,0.5
	c-0.7,0.1-1.3,0.3-1.3,1.4v6.9c0,1.1,0.6,1.3,1.3,1.4c0.1,0,0,0.5-0.1,0.5h-4.1C194,93.1,193.9,92.6,194,92.6z"/>
<path class="st0" d="M201.6,88c-0.1-3,2.2-5.6,5.3-5.8c0.2,0,0.4,0,0.6,0c1.8,0,3.3,0.6,3.1,1.1l-0.2,0.6c-0.6,1.6-1.1-0.5-3.8-0.5
	c-2.2,0-3.2,1.4-3.2,3.6c-0.1,2.5,1.8,4.7,4.3,4.8c0.1,0,0.2,0,0.3,0c0.9-0.1,1.7-0.3,2.4-0.7c0.1-0.1,0.4,0.3,0.4,0.4
	c-0.8,0.9-1.9,1.5-3.1,1.8C205,93.3,201.6,91.8,201.6,88z"/>
<path class="st0" d="M224.6,93.1h-4c-0.2,0-0.2-0.5-0.1-0.5c0.6-0.1,1.2-0.3,0.6-1.6l-0.2-0.4c-0.1-0.4-0.4-0.4-0.9-0.4H217
	c-0.4,0-0.7,0-0.9,0.4L216,91c-0.5,1.3,0,1.5,0.8,1.6c0.2,0,0.1,0.5-0.1,0.5h-3.3c-0.2,0-0.2-0.5,0-0.5c0.6-0.1,1-0.3,1.6-1.6
	l2.6-5.9c0.4-0.8,0.7-1.6,0.8-2.5c0-0.1,1.1-0.3,1.1-0.2l3.7,8.7c0.5,1.3,0.9,1.5,1.5,1.6C224.8,92.6,224.8,93.1,224.6,93.1z
	 M220.3,89.1l-1.8-4.2l-1.8,4.2c-0.1,0.2,0.1,0.2,0.4,0.2h2.9C220.2,89.3,220.4,89.3,220.3,89.1L220.3,89.1z"/>
<path class="st0" d="M237,93l-7.2-7.6v5.8c0,1,0.6,1.2,1.5,1.4c0.1,0,0.1,0.5-0.1,0.5h-3.6c-0.1,0-0.2-0.5-0.1-0.5
	c0.6-0.2,1.2-0.3,1.2-1.4v-5.9c0.1-0.8-0.1-1.5-0.6-2.1c-0.1-0.1-0.2-0.2-0.3-0.3c0-0.2,0.1-0.3,0.3-0.3c0,0,0,0,0,0h1.1
	c0.1,0,0.3,0,0.4,0.1l7.1,7.5v-5.7c0-1.1-0.7-1.2-1.5-1.4c-0.1,0-0.1-0.5,0.1-0.5h3.6c0.1,0,0.2,0.5,0.1,0.5
	c-0.7,0.2-1.2,0.3-1.2,1.4v5.9c0,0.9,0,1.8,0.2,2.7c0.1,0.2-0.2,0.3-0.4,0.3C237.3,93.3,237.1,93.2,237,93z"/>
<path class="st0" d="M252.6,93.1h-4c-0.2,0-0.2-0.5-0.1-0.5c0.6-0.1,1.2-0.3,0.6-1.6l-0.2-0.4c-0.1-0.4-0.4-0.4-0.9-0.4H245
	c-0.5,0-0.7,0-0.9,0.4L244,91c-0.5,1.3,0,1.5,0.8,1.6c0.2,0,0.1,0.5-0.1,0.5h-3.3c-0.2,0-0.2-0.5,0-0.5c0.6-0.1,1-0.3,1.6-1.6
	l2.6-5.9c0.4-0.8,0.7-1.6,0.8-2.5c0-0.1,1.1-0.3,1.1-0.2l3.7,8.7c0.5,1.3,0.9,1.5,1.5,1.6C252.9,92.6,252.8,93.1,252.6,93.1z
	 M248.4,89.1l-1.8-4.2l-1.8,4.2c-0.1,0.2,0.1,0.2,0.4,0.2h2.8C248.2,89.3,248.5,89.3,248.4,89.1z"/>
<path class="st0" d="M13.7,72.2L13.7,72.2c-0.1-2.1,1.6-3.8,3.7-3.9c0,0,0.1,0,0.1,0c1,0,2,0.3,2.8,1L19.8,70
	c-0.6-0.6-1.4-0.9-2.3-0.9c-1.6,0-2.9,1.4-2.9,3c0,0,0,0.1,0,0.1l0,0c-0.1,1.6,1.1,3,2.7,3.1c0.1,0,0.2,0,0.3,0
	c0.8,0,1.6-0.3,2.2-0.8v-1.9h-2.3V72h3.1v3c-0.8,0.7-1.9,1.2-3,1.2c-2,0.1-3.8-1.5-3.9-3.5C13.7,72.5,13.7,72.4,13.7,72.2z"/>
<path class="st0" d="M23.2,72.2L23.2,72.2c0-2.1,1.7-3.9,3.8-3.9c2.1,0,3.9,1.7,3.9,3.8c0,0,0,0,0,0l0,0c0,2.1-1.7,3.8-3.9,3.8
	S23.2,74.4,23.2,72.2z M30,72.2L30,72.2c0.1-1.7-1.2-3.1-2.9-3.1c0,0-0.1,0-0.1,0c-1.7,0-3,1.3-3,3c0,0,0,0.1,0,0.1l0,0
	c-0.1,1.7,1.2,3.1,2.9,3.1c0,0,0.1,0,0.1,0C28.7,75.3,30,73.9,30,72.2C30,72.3,30,72.3,30,72.2L30,72.2z"/>
<path class="st0" d="M33.8,68.4H37c0.7,0,1.4,0.2,2,0.7c0.3,0.3,0.5,0.8,0.5,1.2l0,0c0,0.8-0.5,1.5-1.2,1.8c0.9,0.3,1.6,0.8,1.6,1.8
	l0,0c0,1.3-1.1,2.1-2.8,2.1h-3.4V68.4z M36.8,71.8c1,0,1.7-0.5,1.7-1.3l0,0c0-0.8-0.6-1.2-1.7-1.2h-2.3v2.6L36.8,71.8z M37.1,75.2
	c1.1,0,1.8-0.5,1.8-1.3l0,0c0-0.8-0.7-1.3-2-1.3h-2.4v2.7L37.1,75.2z"/>
<path class="st0" d="M42.7,68.4h0.8V76h-0.8V68.4z"/>
<path class="st0" d="M46.8,68.4h5.5v0.8h-4.6v2.6h4.1v0.8h-4.1v2.7h4.7V76h-5.5V68.4z"/>
<path class="st0" d="M55,68.4h3.2c0.8,0,1.6,0.2,2.2,0.8c0.4,0.4,0.6,0.9,0.6,1.5l0,0c0,1.2-0.9,2.1-2,2.2l2.3,3.1h-1L58,73.1h-2.1
	V76H55V68.4z M58.2,72.3c1.1,0,1.9-0.6,1.9-1.6l0,0c0-0.9-0.7-1.5-1.9-1.5h-2.3v3.1L58.2,72.3z"/>
<path class="st0" d="M63.8,68.4h0.8l4.8,6.1v-6.1h0.8V76h-0.7l-4.9-6.2V76h-0.8L63.8,68.4z"/>
<path class="st0" d="M73.1,72.2L73.1,72.2c0-2.1,1.6-3.9,3.7-3.9c0,0,0.1,0,0.1,0c2.1,0,3.8,1.6,3.8,3.7c0,0.1,0,0.1,0,0.2l0,0
	c0.1,2.1-1.5,3.9-3.7,4.1c-2.1,0.1-3.9-1.5-4.1-3.7C73.1,72.5,73.1,72.3,73.1,72.2L73.1,72.2z M79.9,72.2L79.9,72.2
	c0.1-1.7-1.2-3.1-2.9-3.1c0,0-0.1,0-0.1,0c-1.7,0-3,1.3-3,3c0,0,0,0.1,0,0.1l0,0c-0.1,1.7,1.2,3.1,2.9,3.1c0,0,0.1,0,0.1,0
	c1.7,0,3-1.3,3-3C79.9,72.3,79.9,72.3,79.9,72.2z"/>
<path class="st0" d="M87.9,68.4h2.6c2.1-0.1,3.9,1.5,4,3.5c0,0.1,0,0.2,0,0.2l0,0c0,2.1-1.7,3.8-3.8,3.8c-0.1,0-0.1,0-0.2,0h-2.6
	V68.4z M90.5,75.2c1.6,0.1,3-1.1,3.1-2.7c0-0.1,0-0.2,0-0.3l0,0c0-1.6-1.2-3-2.9-3c-0.1,0-0.2,0-0.3,0h-1.8v6H90.5z"/>
<path class="st0" d="M97.3,68.4h5.5v0.8h-4.6v2.6h4.1v0.8h-4.1v2.7h4.7V76h-5.5V68.4z"/>
<path class="st0" d="M109.9,68.4h0.9v6.8h4.3V76h-5.1L109.9,68.4z"/>
<path class="st0" d="M120.4,68.4h0.8l3.4,7.6h-0.9l-0.9-2h-4.1l-0.9,2H117L120.4,68.4z M122.5,73.2l-1.7-3.8l-1.7,3.8H122.5z"/>
<path class="st0" d="M40.2,16.8h1c0.2,0,0.3,0.1,0.3,0.3v5.4c0,0.2-0.1,0.3-0.3,0.3h-1c-0.2,0-0.3-0.1-0.3-0.3v-5.4
	C39.9,16.9,40,16.8,40.2,16.8z"/>
<path class="st0" d="M42.8,16.8h1c0.2,0,0.3,0.1,0.3,0.3v5.4c0,0.2-0.1,0.3-0.3,0.3h-1c-0.2,0-0.3-0.1-0.3-0.3v-5.4
	C42.5,16.9,42.7,16.8,42.8,16.8z"/>
<path class="st0" d="M37.6,16.8h1c0.2,0,0.3,0.1,0.3,0.3v5.4c0,0.2-0.1,0.3-0.3,0.3h-1c-0.2,0-0.3-0.1-0.3-0.3v-5.4
	C37.3,16.9,37.4,16.8,37.6,16.8z"/>
<path class="st0" d="M35.5,15.6h10.3c0.1,0,0.2,0.1,0.2,0.2v0.4c0,0.1-0.1,0.2-0.2,0.2H35.5c-0.1,0-0.2-0.1-0.2-0.2v-0.4
	C35.4,15.7,35.5,15.6,35.5,15.6z"/>
<path class="st0" d="M50.6,25.9c0.3,0.2,0.7,0.5,1.2,0.9c0.9,0.8,1.8,1.6,2.6,2.4c2.1,2.3,3.8,4.9,5.2,7.7c0.6,1.3,1.2,2.6,1.6,4
	c0.5,1.4,0.9,2.8,1.2,4.2c0.5,2.5,0.8,5.3,0.8,5.3h3.8v-0.1H67l0,0C66.5,39.1,59.5,29.2,49.1,25l0,0c0,0,0.4,0.2,0.8,0.5L50.6,25.9z
	"/>
<path class="st0" d="M60.4,50.4c0-0.3-0.1-0.6-0.1-0.8c-0.3-3.2-1-6.4-2.2-9.4c-0.4-0.9-0.8-1.9-1.3-2.7c-0.1-0.2-0.3-0.5-0.4-0.7
	c-2.4-4.7-6.3-8.5-11.1-10.8l0,0v0c0.9,0.9,1.7,1.9,2.4,3c3.1,4.8,4.9,10.3,5.4,16c0.2,1.4,0.2,2.8,0.2,4.2c0,0.4,0,1,0,1.2v0.1h0.8
	L60.4,50.4L60.4,50.4L60.4,50.4z"/>
<path class="st0" d="M44.7,15.1c0-2.2-1.7-4-3.9-4.1v-0.7h1.1v-0.1l0,0V9.8l0,0h-0.2l0,0v0.4h-0.8V8.6l0,0l0,0V8.1 M40.9,8.1h-0.2
	 M40.7,8.1v0.4l0,0l0,0v1.5h-0.9V9.8l0,0h-0.2l0,0v0.4l0,0v0.1h1.1V11c-2.2,0.1-4,1.9-3.9,4.1l0,0h8L40.7,8.1z"/>
<path class="st0" d="M35.5,23.4h10.3c0.1,0,0.2,0.1,0.2,0.2V24c0,0.1-0.1,0.2-0.2,0.2H35.5c-0.1,0-0.2-0.1-0.2-0.2v-0.4
	C35.4,23.5,35.5,23.4,35.5,23.4z"/>
<path class="st0" d="M42.2,26.4l-0.1-0.1v24.1h8.8c0,0,0-0.2,0-0.4C50.9,39.8,47.4,30.9,42.2,26.4z"/>
<path class="st0" d="M60.5,54.1h2.3c0.2,0,0.3,0.1,0.3,0.3v2.3c0,0.2-0.1,0.3-0.3,0.3h-2.3c-0.2,0-0.3-0.1-0.3-0.3v-2.3
	C60.2,54.3,60.3,54.1,60.5,54.1z"/>
<path class="st0" d="M28.1,54.1h2.3c0.2,0,0.3,0.1,0.3,0.3v2.3c0,0.2-0.1,0.3-0.3,0.3h-2.3c-0.2,0-0.3-0.1-0.3-0.3v-2.3
	C27.8,54.3,27.9,54.1,28.1,54.1z"/>
<path class="st0" d="M51,54.1h2.3c0.2,0,0.3,0.1,0.3,0.3v2.3c0,0.2-0.1,0.3-0.3,0.3H51c-0.2,0-0.3-0.1-0.3-0.3v-2.3
	C50.7,54.3,50.8,54.1,51,54.1z"/>
<path class="st0" d="M39.6,54.1h2.3c0.2,0,0.3,0.1,0.3,0.3v2.3c0,0.2-0.1,0.3-0.3,0.3h-2.3c-0.2,0-0.3-0.1-0.3-0.3v-2.3
	C39.2,54.3,39.4,54.1,39.6,54.1z"/>
<path class="st0" d="M68.3,52.4h-5.2v-0.9c0-0.1-0.1-0.3-0.3-0.3h-2.4c-0.1,0-0.3,0.1-0.3,0.3v0.9h-6.5v-0.9c0-0.1-0.1-0.3-0.3-0.3
	H51c-0.1,0-0.3,0.1-0.3,0.3v0.9h-8.5v-0.9c0-0.1-0.1-0.3-0.3-0.3h-2.5c-0.1,0-0.3,0.1-0.3,0.2c0,0,0,0,0,0v0.9h-8.5v-0.9
	c0-0.1-0.1-0.3-0.3-0.3H28c-0.1,0-0.3,0.1-0.3,0.3v0.9h-6.5v-0.9c0-0.1-0.1-0.3-0.2-0.3c0,0,0,0,0,0h-2.4c-0.1,0-0.3,0.1-0.3,0.3
	v0.9h-5.2c-0.1,0-0.2,0.1-0.2,0.2V53c0,0.1,0.1,0.2,0.2,0.2h55.1c0.1,0,0.2-0.1,0.2-0.2v-0.5C68.5,52.5,68.4,52.4,68.3,52.4z"/>
<path class="st0" d="M18.7,54.1H21c0.2,0,0.3,0.1,0.3,0.3v2.3c0,0.2-0.1,0.3-0.3,0.3h-2.3c-0.2,0-0.3-0.1-0.3-0.3v-2.3
	C18.4,54.3,18.5,54.1,18.7,54.1z"/>
<path class="st0" d="M39.4,50.5V26.3l-0.1,0.1c-5.2,4.5-8.7,13.4-8.7,23.7v0.4L39.4,50.5z"/>
<path class="st0" d="M14.7,50.5h3.8c0,0,0.3-2.8,0.8-5.3c0.3-1.4,0.7-2.8,1.2-4.2c0.5-1.4,1-2.7,1.6-4c1.3-2.8,3-5.4,5.1-7.7
	c0.8-0.9,1.7-1.7,2.6-2.5c0.4-0.4,0.8-0.6,1.1-0.9l0.6-0.4c0.3-0.2,0.6-0.4,0.8-0.5l0,0C21.9,29.2,15,39.2,14.5,50.4l0,0L14.7,50.5z
	"/>
<path class="st0" d="M33.7,28.9c0.7-1.1,1.5-2.1,2.4-3l0,0l0,0C31.3,28.2,27.4,32,25,36.7l-0.4,0.7c-0.5,0.9-0.9,1.8-1.3,2.8
	c-1.2,3-1.9,6.2-2.2,9.4c0,0.3-0.1,0.6-0.1,0.8v0.1h7v-0.1c0-0.2,0-0.8,0-1.2c0-1.4,0.1-2.8,0.2-4.2C28.8,39.3,30.6,33.8,33.7,28.9z
	"/>
<path class="st0" d="M13.3,57.8h54.9c0.2,0,0.3,0.1,0.3,0.3v1.3c0,0.2-0.1,0.3-0.3,0.3H13.3c-0.2,0-0.3-0.1-0.3-0.3v-1.3
	C13,57.9,13.1,57.8,13.3,57.8z"/>
<polyline class="st0" points="68.2,105.4 13,105.4 13,102.4 68.2,102.4 "/>
</svg>
