<?xml version="1.0" encoding="utf-8"?>
<!-- Generator: Adobe Illustrator 25.4.1, SVG Export Plug-In . SVG Version: 6.00 Build 0)  -->
<svg version="1.1" id="Layer_1" xmlns="http://www.w3.org/2000/svg" xmlns:xlink="http://www.w3.org/1999/xlink" x="0px" y="0px"
	 viewBox="0 0 560 288" style="enable-background:new 0 0 560 288;" xml:space="preserve">
<style type="text/css">
	.st0{fill:#003057;}
</style>
<g>
	<g>
		<g>
			<path class="st0" d="M109.97,163.64c-2.14,0-3.88-1.74-3.88-3.88v-21.05c0-2.14,1.74-3.88,3.88-3.88s3.88,1.74,3.88,3.88v21.05
				C113.85,161.9,112.11,163.64,109.97,163.64z"/>
			<path class="st0" d="M125.86,156.99c-2.14,0-3.88-1.74-3.88-3.88v-21.05c0-2.14,1.74-3.88,3.88-3.88s3.88,1.74,3.88,3.88v21.05
				C129.73,155.25,128,156.99,125.86,156.99z"/>
			<path class="st0" d="M125.86,174.97c-2.14,0-3.88-1.74-3.88-3.88v-4.92c0-2.14,1.74-3.88,3.88-3.88s3.88,1.74,3.88,3.88v4.92
				C129.73,173.23,128,174.97,125.86,174.97z"/>
			<path class="st0" d="M141.74,163.64c-2.14,0-3.88-1.74-3.88-3.88v-21.05c0-2.14,1.74-3.88,3.88-3.88c2.14,0,3.88,1.74,3.88,3.88
				v21.05C145.62,161.9,143.88,163.64,141.74,163.64z"/>
		</g>
		<path class="st0" d="M152.82,137.41c-0.77,0-1.54-0.23-2.22-0.7l-24.74-17.28l-24.74,17.28c-1.76,1.23-4.17,0.8-5.4-0.96
			c-1.23-1.76-0.8-4.17,0.96-5.4l25.24-17.63c2.36-1.65,5.53-1.65,7.89,0l25.24,17.63c1.76,1.23,2.18,3.64,0.96,5.4
			C155.24,136.83,154.04,137.41,152.82,137.41z"/>
	</g>
	<path class="st0" d="M183.52,98.34c2.48-10.44-3.17-21.37-13.48-25.2c-6.09-2.26-12.56-1.58-17.86,1.31
		c-3.7,2.02-6.82,5.12-8.85,9.06c-0.39,0.75-0.74,1.53-1.04,2.35c-4.14,11.15,1.56,23.6,12.71,27.74
		c7.84,2.91,16.33,0.95,22.11-4.34c2.44-2.23,4.4-5.06,5.63-8.37C183.07,100.05,183.32,99.2,183.52,98.34z"/>
	<path class="st0" d="M192.62,163.56c7.09-19.08,5.23-39.34-3.47-56.13c-2.02,3.83-4.79,7.09-8.06,9.65
		c5.46,13.1,6.18,28.2,0.86,42.52c-5.78,15.56-17.58,27.17-31.78,33.2c1.19,3.77,1.55,7.81,0.93,11.86
		C169.64,197.93,185.23,183.45,192.62,163.56z"/>
	<path class="st0" d="M142.08,195.55c-1.56-5.13-5.39-9.5-10.79-11.51c-9.09-3.38-19.21,1.2-22.72,10.2
		c-0.03,0.09-0.08,0.17-0.11,0.26c-1.44,3.86-1.42,7.91-0.25,11.57c1.6,5.02,5.4,9.29,10.71,11.27c9.01,3.35,19.03-1.13,22.62-9.98
		c0.07-0.16,0.15-0.32,0.21-0.49C143.16,203.09,143.17,199.14,142.08,195.55z"/>
	<path class="st0" d="M80.67,113.83c-1.07-3.51-3.69-6.51-7.39-7.89c-6.23-2.31-13.17,0.82-15.57,6.99
		c-0.02,0.06-0.05,0.12-0.08,0.18c-0.98,2.65-0.97,5.42-0.17,7.93c1.1,3.44,3.7,6.37,7.34,7.72c6.18,2.29,13.04-0.77,15.5-6.84
		c0.05-0.11,0.1-0.22,0.14-0.33C81.41,119,81.42,116.29,80.67,113.83z"/>
	<path class="st0" d="M69.49,137.02c-2.87,0.27-5.84-0.07-8.71-1.14c-0.9-0.34-1.75-0.75-2.57-1.2
		c-1.9,28.34,13.89,55.84,40.68,67.94c-0.28-3.66,0.2-7.44,1.57-11.1c0.08-0.22,0.17-0.44,0.26-0.66
		C80.54,180.39,68.62,159.13,69.49,137.02z"/>
	<path class="st0" d="M81.9,103.43c12.5-15.84,32.62-24.21,52.84-21.67c1.68-4.03,4.16-7.51,7.17-10.34
		c-26.69-5.68-54.1,5-70.1,26.45c0.94,0.2,1.87,0.44,2.8,0.79C77.46,99.72,79.91,101.38,81.9,103.43z"/>
	<rect x="217.24" y="64.75" class="st0" width="3.16" height="158.22"/>
	<g>
		<path class="st0" d="M268.61,113.02v10.18c-2.62,3.59-6.72,5.57-11.53,5.57c-8.57,0-14.74-6.38-14.74-14.91
			c0-8.15,5.66-14.82,14.57-14.82c4.39,0,8.07,1.77,10.9,4.94l-1.82,1.73c-2.41-2.66-5.41-4.1-9.08-4.1
			c-7.22,0-11.78,5.32-11.78,12.25c0,7.09,4.81,12.33,12.16,12.33c3.55,0,6.59-1.31,8.66-3.8v-6.84h-9.08v-2.53H268.61z"/>
		<path class="st0" d="M290.77,128.21v0.06h-2.04l-2.13-4.61h-11l-2.13,4.61h-2.04v-0.06l9.34-20.2h0.65L290.77,128.21z
			 M279.98,114.14l-3.58,7.75h9.37l-3.55-7.75c-0.41-0.86-0.77-1.74-1.12-2.69C280.72,112.36,280.39,113.25,279.98,114.14z"/>
		<path class="st0" d="M308.3,122.68c0,3.31-2.6,5.59-6.12,5.59h-8.04v-20.11h7.51c3.19,0,5.74,2.13,5.74,5.2
			c0,1.92-0.98,3.4-2.42,4.26C306.97,118.48,308.3,120.43,308.3,122.68z M296.09,116.92h5.5c2.39,0,3.87-1.27,3.87-3.55
			c0-2.13-1.72-3.43-3.93-3.43h-5.44V116.92z M306.35,122.56c0-2.31-1.72-3.87-4.11-3.87h-6.15v7.81h6
			C304.54,126.5,306.35,124.99,306.35,122.56z"/>
		<path class="st0" d="M312.85,108.16h1.95v20.11h-1.95V108.16z"/>
		<path class="st0" d="M337.39,108.16v20.25h-0.86l-12.51-14.73c-0.44-0.53-0.95-1.09-1.45-1.66c0.06,0.62,0.09,1.24,0.09,1.92
			v14.31h-1.95v-20.25h0.83l12.48,14.67c0.47,0.53,0.98,1.09,1.48,1.69c-0.06-0.74-0.06-1.45-0.06-2.1v-14.1H337.39z"/>
		<path class="st0" d="M355.57,126.5v1.77H343.3v-20.11h12.01v1.77h-10.05v7.16h8.84v1.74h-8.84v7.66H355.57z"/>
		<path class="st0" d="M371.86,109.94h-6.18v18.33h-1.95v-18.33h-6.18v-1.77h14.31V109.94z"/>
		<path class="st0" d="M387.76,126.5v1.77h-12.27v-20.11h12.01v1.77h-10.05v7.16h8.84v1.74h-8.84v7.66H387.76z"/>
		<path class="st0" d="M401.65,108.16h6.45c6.09,0,10.26,4.23,10.26,10.08c0,5.82-4.05,10.02-10.23,10.02h-6.48V108.16z
			 M408.12,126.5c5.03,0,8.31-3.58,8.31-8.25c0-4.7-3.31-8.31-8.34-8.31h-4.5v16.56H408.12z"/>
		<path class="st0" d="M435.26,126.5v1.77h-12.27v-20.11H435v1.77h-10.05v7.16h8.84v1.74h-8.84v7.66H435.26z"/>
		<path class="st0" d="M243.44,143.52h4.98v28.72h-4.98V143.52z"/>
		<path class="st0" d="M280.05,143.52v28.89h-1.94l-15.5-16.93c-0.72-0.76-1.61-1.69-2.41-2.62c0.08,1.06,0.17,2.11,0.17,3.12v16.26
			h-4.94v-28.89h1.9l15.03,16.51c0.93,0.97,1.9,1.98,2.87,3.08c-0.08-1.39-0.13-2.66-0.13-3.84v-15.58H280.05z"/>
		<path class="st0" d="M311.68,143.52v28.89h-1.94l-15.5-16.93c-0.72-0.76-1.61-1.69-2.41-2.62c0.08,1.06,0.17,2.11,0.17,3.12v16.26
			h-4.94v-28.89h1.9L304,159.87c0.93,0.97,1.9,1.98,2.87,3.08c-0.08-1.39-0.13-2.66-0.13-3.84v-15.58H311.68z"/>
		<path class="st0" d="M317.14,157.84c0-8.61,6.17-14.86,14.95-14.86c8.87,0,14.95,6.25,14.95,14.86c0,8.4-6.08,14.95-14.95,14.95
			C323.3,172.79,317.14,166.24,317.14,157.84z M341.97,157.84c0-5.95-3.84-10.35-9.88-10.35c-6,0-9.84,4.39-9.84,10.35
			c0,5.79,3.84,10.43,9.84,10.43C338.12,168.27,341.97,163.63,341.97,157.84z"/>
		<path class="st0" d="M376.68,143.52v0.08l-13.6,28.8h-1.52l-13.6-28.8v-0.08h5.45l7.31,15.96c0.68,1.48,1.18,2.66,1.6,3.93
			c0.51-1.39,1.1-2.87,1.65-4.01l7.22-15.88H376.68z"/>
		<path class="st0" d="M401.69,172.11v0.13h-5.19l-2.36-5.19H380.7l-2.36,5.19h-5.24v-0.08l13.56-28.8h1.52L401.69,172.11z
			 M385.47,156.28l-3.13,6.84h10.14l-3.12-6.84c-0.68-1.52-1.27-3.04-1.94-4.9C386.74,153.24,386.14,154.71,385.47,156.28z"/>
		<path class="st0" d="M402.83,157.84c0-8.61,6.21-14.86,14.91-14.86c4.35,0,7.6,1.31,10.81,4.22l-2.58,3.38
			c-2.07-1.9-4.6-3.08-8.11-3.08c-5.87,0-9.92,4.31-9.92,10.35c0,5.87,3.93,10.43,9.75,10.43c3.67,0,6.46-1.56,8.36-4.05l3.12,3.21
			c-2.79,3.42-6.67,5.36-11.57,5.36C408.74,172.79,402.83,166.12,402.83,157.84z"/>
		<path class="st0" d="M433.61,143.52h4.98v28.72h-4.98V143.52z"/>
		<path class="st0" d="M444.05,157.84c0-8.61,6.17-14.86,14.95-14.86c8.87,0,14.95,6.25,14.95,14.86c0,8.4-6.08,14.95-14.95,14.95
			C450.21,172.79,444.05,166.24,444.05,157.84z M468.88,157.84c0-5.95-3.84-10.35-9.88-10.35c-6,0-9.84,4.39-9.84,10.35
			c0,5.79,3.84,10.43,9.84,10.43C465.03,168.27,468.88,163.63,468.88,157.84z M454.77,138.46l6.25-5.36l2.74,3.17l-7.01,4.48
			L454.77,138.46z"/>
		<path class="st0" d="M504.02,143.52v28.89h-1.94l-15.5-16.93c-0.72-0.76-1.61-1.69-2.41-2.62c0.08,1.06,0.17,2.11,0.17,3.12v16.26
			h-4.94v-28.89h1.9l15.03,16.51c0.93,0.97,1.9,1.98,2.87,3.08c-0.08-1.39-0.13-2.66-0.13-3.84v-15.58H504.02z"/>
	</g>
</g>
</svg>
