<?xml version="1.0" encoding="utf-8"?>
<!-- Generator: Adobe Illustrator 25.4.1, SVG Export Plug-In . SVG Version: 6.00 Build 0)  -->
<svg version="1.1" id="Layer_1" xmlns="http://www.w3.org/2000/svg" xmlns:xlink="http://www.w3.org/1999/xlink" x="0px" y="0px"
	 viewBox="0 0 262.7 118.3" style="enable-background:new 0 0 262.7 118.3;" xml:space="preserve">
<style type="text/css">
	.st0{fill:#FFFFFF;}
</style>
<path class="st0" d="M121.6,47.2c0,3.7-3.4,6.2-8.4,6.2c-1.4,0-3.1-0.2-5.4-0.2c-1.6,0-3.2,0-4.7,0.2c-0.3,0-0.4-1-0.2-1.1
	c1.8-0.5,3.1-0.7,3.1-3V35.9c0-1.9-1.2-2.4-2.5-2.8c-0.2-0.1-0.1-1.1,0.2-1c1.2,0.1,2.4,0.2,3.6,0.2c2.4,0,4.2-0.2,5.5-0.2
	c3.9,0,7.1,1.6,7.1,5c0,2.2-1.6,4.2-3.8,4.5v0.2c3-0.1,5.4,2.2,5.5,5.2C121.6,47.1,121.6,47.2,121.6,47.2z M109.6,35.9v5.4h3.1
	c2.2,0,3.4-1.1,3.4-3.4c0-2.9-1.9-4.2-4.4-4.2C110.1,33.7,109.6,34.2,109.6,35.9z M117.7,47.8c0.2-2.6-1.7-4.9-4.3-5.1
	c-0.2,0-0.4,0-0.7,0h-3.1v6.5c0,1.7,0.8,2.5,3.5,2.5S117.7,51,117.7,47.8z"/>
<path class="st0" d="M123.3,52.2c1.8-0.5,3.1-0.7,3.1-3V35.9c0-1.9-1.2-2.4-2.5-2.8c-0.2-0.1-0.1-1.1,0.2-1c2.2,0.2,6,0.2,7.8,0.2
	c2.7,0,4.7-0.1,7.2-0.2c0.7,0,0.7,0.5,0.6,1.2l-0.7,2.9c-0.1,0.4-0.9,0.4-1,0c-0.4-1.5-1.4-2.3-5.1-2.3c-2.1,0-2.8,0.5-2.8,2.1v4.9
	c0,0.8,0.4,0.9,1,0.9h0.7c2.4,0,4.6-0.2,5.8-1.4c0.3-0.3,1-0.2,0.7,0.4l-1.7,3.8c-0.2,0.5-0.7,0.5-1,0c-0.7-1-2.2-1.4-4-1.4H131
	c-0.6,0-1,0.2-1,0.9v5.1c0,1.7,0.7,2.3,3.2,2.3c4.6,0,6.4-2.1,7.1-3.2c0.2-0.3,1-0.2,1,0.3c0,1.5-1.3,4.6-3.2,4.6
	c-1.7-0.1-3.3-0.2-5.9-0.2c-2.8,0-6.1-0.1-8.8,0.2C123.2,53.4,123.1,52.3,123.3,52.2z"/>
<path class="st0" d="M143.6,43.1c0-5.2,3.2-11.4,11.6-11.4c3.5,0,6.5,1.1,6.1,2.1L161,35c-1.1,3.2-2.3-0.9-7.6-0.9
	c-4.3,0-6.4,2.8-6.4,7.1c-0.3,5,3.6,9.3,8.6,9.6c0.2,0,0.4,0,0.7,0c1.7-0.1,3.3-0.6,4.9-1.4c0.2-0.2,0.9,0.5,0.7,0.8
	c-1.3,1.9-5.3,3.5-6.3,3.5C150.4,53.8,143.6,50.8,143.6,43.1z"/>
<path class="st0" d="M185.2,53.3h-8c-0.4,0-0.4-1-0.1-1c1.1-0.2,2.3-0.6,1.2-3.2l-0.3-0.8c-0.3-0.7-0.8-0.8-1.7-0.8h-6.1
	c-0.9,0-1.4,0.1-1.7,0.8l-0.3,0.8c-1.1,2.6,0.1,3,1.5,3.2c0.4,0.1,0.3,1-0.1,1h-6.5c-0.4,0-0.5-1-0.1-1c1.2-0.2,2-0.6,3.1-3.2
	l5.1-11.7c1.2-2.7,1.5-3.9,1.5-5c0.7-0.4,1.4-0.5,2.2-0.5l7.4,17.1c1.1,2.6,1.8,3,3,3.2C185.7,52.3,185.6,53.3,185.2,53.3z
	 M176.8,45.3l-3.5-8.4l-3.6,8.4c-0.2,0.4,0.3,0.5,0.7,0.5h5.7C176.5,45.8,177,45.8,176.8,45.3L176.8,45.3z"/>
<path class="st0" d="M196.4,52.3c2.1-0.3,3.5-0.7,3.5-2.3V35.1c0-0.8-0.3-1-1-1h-0.8c-2.9,0-4.5,0.7-5.1,2c-0.3,0.6-1.3,0.5-1.2,0
	c0.3-1.2,0.6-2.4,0.7-3.6c0.1-0.6,0.4-0.5,0.9-0.5c2.8,0.2,5.6,0.3,8.4,0.2c5.7,0,7.7-0.1,9.2-0.2c0.5-0.1,1.1-0.1,0.9,0.5
	c-0.4,1.2-0.7,2.4-0.9,3.6c-0.1,0.3-0.4,0.4-0.7,0.3c-0.2-0.1-0.3-0.2-0.3-0.3c-0.3-1.3-1.6-2-4.2-2h-0.9c-0.7,0-1.2,0.2-1.2,1V50
	c0,1.6,1.4,2,3.5,2.3c0.2,0,0.1,1-0.2,1h-10.3C196.4,53.3,196.2,52.3,196.4,52.3z"/>
<path class="st0" d="M216.2,45.4v-9.5c0.2-1.3-0.7-2.5-2-2.7c-0.1,0-0.3,0-0.4,0c-0.2,0-0.1-1,0.2-1h8.2c0.2,0,0.4,1,0.2,1
	c-1.3,0-2.4,1-2.4,2.3c0,0.1,0,0.2,0,0.4v9.6c0,4.2,2.4,6.2,5.6,6.2s5.9-2,5.9-6.2v-9.6c0-2-1.1-2.5-2.6-2.7c-0.2,0-0.1-1,0.2-1h6.8
	c0.2,0,0.4,1,0.1,1c-1.3,0-2.4,1-2.4,2.3c0,0.1,0,0.3,0,0.4v9.4c0,5.5-3.6,8.4-8.4,8.4C221,53.8,216.2,51.5,216.2,45.4z"/>
<path class="st0" d="M102.9,80.5c1.8-0.4,3.1-0.7,3.1-3V64.1c0-1.9-1.2-2.4-2.5-2.8c-0.2-0.1-0.1-1,0.2-1c2.2,0.2,6,0.2,7.8,0.2
	c2.7,0,4.7-0.1,7.2-0.2c0.7,0,0.7,0.5,0.6,1.2l-0.7,2.9c-0.1,0.4-0.8,0.4-1,0c-0.5-1.5-1.4-2.3-5.1-2.3c-2.1,0-2.8,0.5-2.8,2.1v5.2
	c0,0.8,0.4,0.9,1,0.9h0.7c2.4,0,4.6-0.2,5.8-1.4c0.3-0.3,1-0.2,0.7,0.4l-1.7,3.8c-0.2,0.5-0.7,0.5-1,0c-0.7-1-2.2-1.3-4-1.3h-0.4
	c-0.6,0-1,0.2-1,0.9v4.8c0,2.2,1.4,2.4,3.9,3c0.3,0.1,0.1,1.1-0.2,1.1c-2.2-0.2-3.7-0.2-5.5-0.2c-1.6,0-3.2,0-4.7,0.2
	C102.7,81.6,102.6,80.5,102.9,80.5z"/>
<path class="st0" d="M124,73.6v-9.5c0.2-1.3-0.7-2.5-2-2.7c-0.1,0-0.3,0-0.4,0c-0.2,0-0.1-1,0.2-1h8.3c0.2,0,0.4,1,0.2,1
	c-1.3,0-2.4,1-2.4,2.3c0,0.1,0,0.3,0,0.4v9.6c0,4.2,2.4,6.2,5.6,6.2s5.9-2,5.9-6.2v-9.6c0-2-1.1-2.5-2.6-2.7c-0.2,0-0.1-1,0.2-1h6.8
	c0.2,0,0.4,1,0.2,1c-1.3,0-2.4,1-2.4,2.3c0,0.1,0,0.3,0,0.4v9.4c0,5.6-3.6,8.4-8.4,8.4C128.8,82,124,79.7,124,73.6z"/>
<path class="st0" d="M150.1,80.5c2.1-0.3,3.5-0.7,3.5-2.3V63.3c0-0.8-0.3-1-1-1h-0.8c-2.9,0-4.5,0.7-5.1,2c-0.3,0.6-1.3,0.5-1.2,0
	c0.3-1.2,0.6-2.4,0.7-3.6c0.1-0.6,0.4-0.5,0.9-0.5c2.8,0.2,5.6,0.3,8.4,0.2c5.7,0,7.7-0.1,9.2-0.2c0.5-0.1,1.1-0.1,0.9,0.5
	c-0.4,1.2-0.7,2.4-0.9,3.6c-0.1,0.3-0.4,0.4-0.7,0.3c-0.2-0.1-0.3-0.2-0.3-0.3c-0.3-1.3-1.6-2-4.2-2h-0.9c-0.7,0-1.2,0.2-1.2,1v14.8
	c0,1.6,1.4,2,3.5,2.3c0.2,0,0.1,1-0.2,1h-10.3C150,81.5,149.8,80.5,150.1,80.5z"/>
<path class="st0" d="M170,73.6v-9.5c0.2-1.3-0.7-2.5-2-2.7c-0.1,0-0.3,0-0.4,0c-0.2,0-0.1-1,0.2-1h8.3c0.2,0,0.4,1,0.2,1
	c-1.3,0-2.4,1-2.4,2.3c0,0.1,0,0.3,0,0.4v9.6c0,4.2,2.4,6.2,5.6,6.2s5.9-2,5.9-6.2v-9.6c0-2-1.1-2.5-2.6-2.7c-0.2,0-0.1-1,0.2-1h6.8
	c0.2,0,0.4,1,0.1,1c-1.3,0-2.4,1-2.4,2.3c0,0.1,0,0.3,0,0.4v9.4c0,5.6-3.6,8.4-8.4,8.4C174.8,82,170,79.7,170,73.6z"/>
<path class="st0" d="M214.1,81.6c-2.3,0.9-4.8,0.1-6.3-1.8l-4.6-6c-1.3-1.7-2.8-1.9-4.9-2v5.8c0,2.1,1.4,2.5,3.4,2.7
	c0.2,0,0.1,1-0.2,1h-9.1c-0.2,0-0.4-1-0.2-1c1.5-0.2,2.5-0.8,2.5-2.7V64.3c0-2-1-2.6-2.5-3c-0.2-0.1-0.1-1,0.2-1
	c1.2,0.1,2.3,0.2,3.5,0.2c2.2,0,4.3-0.2,5.8-0.2c4.6,0,7.6,1.9,7.6,5.6c0,3.5-2.8,5.2-5.4,5.4v0.2c1.2,0,2.1,0.5,3.4,2.2l4.5,5.6
	c0.6,0.9,1.5,1.4,2.5,1.5C214.4,80.8,214.3,81.6,214.1,81.6z M205.3,66.7c0.2-2.4-1.6-4.6-4-4.8c-0.2,0-0.5,0-0.7,0
	c-1.8,0-2.4,0.7-2.4,2.4v6.2h0.9C203.6,70.5,205.3,69.8,205.3,66.7z"/>
<path class="st0" d="M214.4,71.1c0-6.1,4.3-11.2,10.9-11.2c5.8-0.2,10.7,4.4,10.9,10.2c0,0.2,0,0.5,0,0.7c0,6.1-4.3,11.2-10.9,11.2
	c-5.8,0.2-10.7-4.4-10.9-10.3C214.3,71.5,214.3,71.3,214.4,71.1z M232.6,72.5c0-6.1-4.1-10.5-8.5-10.5c-2.6,0-6.1,1.8-6.1,7.4
	c0,6.1,4.1,10.5,8.4,10.5C229.1,79.9,232.6,78.2,232.6,72.5z"/>
<path class="st0" d="M102.7,92.4L102.7,92.4c0-1.9,1.5-3.4,3.3-3.4c0,0,0,0,0.1,0c1,0,1.9,0.3,2.6,1l-0.5,0.6
	c-0.5-0.6-1.3-0.9-2.1-0.9c-1.4,0-2.6,1.2-2.6,2.6c0,0,0,0.1,0,0.1l0,0c-0.1,1.5,1.1,2.7,2.5,2.8c0,0,0,0,0.1,0c0.8,0,1.6-0.4,2.2-1
	l0.5,0.5c-0.7,0.8-1.7,1.2-2.7,1.2C104.2,95.8,102.7,94.3,102.7,92.4C102.7,92.5,102.7,92.5,102.7,92.4z"/>
<path class="st0" d="M109.8,90.8h0.7v1.3c0.3-0.8,1.1-1.4,2-1.4v0.8h-0.1c-1.1,0-2,0.9-2,2c0,0.1,0,0.2,0,0.3v2h-0.7L109.8,90.8z"/>
<path class="st0" d="M115.4,95.2c0.6,0,1.2-0.2,1.6-0.7l0.5,0.4c-0.5,0.6-1.2,0.9-2,0.9c-1.4-0.1-2.5-1.3-2.4-2.8
	c0.1-1.3,1.1-2.3,2.3-2.4c1.3,0,2.3,1.1,2.3,2.4c0,0.1,0,0.1,0,0.2c0,0.1,0,0.1,0,0.3h-3.9C113.8,94.5,114.5,95.2,115.4,95.2z
	 M116.9,93c0-0.9-0.7-1.6-1.6-1.7c-0.9,0.1-1.6,0.8-1.6,1.7H116.9z"/>
<path class="st0" d="M118.4,93.3L118.4,93.3c0-1.4,1.1-2.6,2.6-2.6c0.7,0,1.5,0.3,2,0.9l-0.5,0.5c-0.4-0.5-0.9-0.7-1.5-0.8
	c-1,0-1.8,0.9-1.8,1.9c0,0,0,0,0,0l0,0c0,1,0.7,1.9,1.8,1.9c0,0,0.1,0,0.1,0c0.6,0,1.1-0.3,1.5-0.7l0.5,0.4c-0.5,0.6-1.2,1-2,1
	c-1.4,0-2.5-1.1-2.6-2.5C118.4,93.4,118.4,93.4,118.4,93.3z"/>
<path class="st0" d="M126,95.2c0.6,0,1.2-0.2,1.6-0.7L128,95c-0.5,0.6-1.2,0.9-2,0.9c-1.4-0.1-2.5-1.3-2.4-2.8
	c0.1-1.3,1.1-2.3,2.3-2.4c1.3,0,2.3,1.1,2.3,2.4c0,0.1,0,0.1,0,0.2c0,0.1,0,0.1,0,0.3h-3.9C124.4,94.5,125.1,95.2,126,95.2z
	 M127.4,93c0-0.9-0.7-1.6-1.6-1.7c-0.9,0.1-1.6,0.8-1.6,1.7H127.4z"/>
<path class="st0" d="M132.2,94.5v-3h-0.7v-0.7h0.7v-1.5h0.8v1.5h1.6v0.7H133v2.9c-0.1,0.4,0.2,0.8,0.6,0.8c0.1,0,0.1,0,0.2,0
	c0.3,0,0.5-0.1,0.7-0.2v0.6c-0.3,0.1-0.6,0.2-0.9,0.2c-0.7,0.1-1.3-0.4-1.4-1C132.2,94.7,132.2,94.6,132.2,94.5z"/>
<path class="st0" d="M135.6,93.9v-3.1h0.7v2.9c-0.1,0.7,0.4,1.4,1.1,1.5c0.1,0,0.2,0,0.2,0c0.8,0,1.5-0.6,1.5-1.4c0,0,0-0.1,0-0.1
	v-2.8h0.7v4.9h-0.7v-0.9c-0.3,0.6-1,1-1.7,1c-1,0.1-1.8-0.7-1.9-1.7C135.5,94.1,135.5,94,135.6,93.9z"/>
<path class="st0" d="M144.3,94.5v-3h-0.7v-0.7h0.7v-1.5h0.7v1.5h1.6v0.7H145v2.9c-0.1,0.4,0.2,0.8,0.6,0.8c0.1,0,0.1,0,0.2,0
	c0.3,0,0.5-0.1,0.7-0.2v0.6c-0.3,0.1-0.6,0.2-0.9,0.2c-0.7,0.1-1.3-0.4-1.4-1.1C144.3,94.6,144.3,94.6,144.3,94.5z"/>
<path class="st0" d="M147.3,94.3L147.3,94.3c0-1.1,0.9-1.6,2.1-1.6c0.5,0,1,0.1,1.5,0.2v-0.2c0-0.9-0.5-1.3-1.5-1.3
	c-0.5,0-1,0.1-1.5,0.3l-0.2-0.6c0.6-0.3,1.2-0.4,1.8-0.4c0.6,0,1.2,0.2,1.6,0.5c0.4,0.4,0.5,0.9,0.5,1.5v3h-0.7V95
	c-0.4,0.5-1.1,0.9-1.8,0.8C148.2,95.9,147.4,95.3,147.3,94.3C147.3,94.4,147.3,94.3,147.3,94.3z M150.9,94v-0.5
	c-0.5-0.1-1-0.2-1.4-0.2c-0.9,0-1.4,0.4-1.4,1l0,0c0,0.6,0.6,1,1.2,1C150.1,95.4,150.8,94.8,150.9,94L150.9,94z"/>
<path class="st0" d="M153.1,88.8h0.7v7h-0.7V88.8z"/>
<path class="st0" d="M157.5,95.2c0.6,0,1.2-0.2,1.6-0.7l0.5,0.4c-0.5,0.6-1.2,0.9-2,0.9c-1.4-0.1-2.5-1.3-2.4-2.8
	c0.1-1.3,1.1-2.3,2.3-2.4c1.3,0,2.3,1.1,2.3,2.4c0,0.1,0,0.1,0,0.2c0,0.1,0,0.1,0,0.3h-3.9C155.9,94.5,156.6,95.2,157.5,95.2z
	 M159,93c0-0.9-0.7-1.6-1.6-1.7c-0.9,0-1.6,0.8-1.6,1.7H159z"/>
<path class="st0" d="M160.8,90.8h0.7v0.9c0.3-0.6,1-1,1.7-1c1-0.1,1.9,0.7,1.9,1.7c0,0.1,0,0.2,0,0.3v3.1h-0.7v-2.9
	c0.1-0.7-0.4-1.4-1.1-1.5c-0.1,0-0.2,0-0.3,0c-0.8,0-1.5,0.6-1.5,1.4c0,0,0,0.1,0,0.1v2.8h-0.7L160.8,90.8z"/>
<path class="st0" d="M166.8,94.5v-3h-0.7v-0.7h0.7v-1.5h0.7v1.5h1.6v0.7h-1.6v2.9c-0.1,0.4,0.2,0.8,0.6,0.8c0.1,0,0.1,0,0.2,0
	c0.2,0,0.5-0.1,0.7-0.2v0.6c-0.3,0.1-0.6,0.2-0.9,0.2c-0.7,0.1-1.3-0.5-1.4-1.1C166.8,94.6,166.8,94.5,166.8,94.5z"/>
<path class="st0" d="M169.7,93.3L169.7,93.3c0.1-1.4,1.3-2.5,2.7-2.4c1.3,0.1,2.3,1.1,2.4,2.4l0,0c-0.1,1.4-1.3,2.5-2.7,2.4
	C170.8,95.7,169.8,94.6,169.7,93.3z M174.1,93.3L174.1,93.3c0-1-0.8-1.9-1.8-1.9c0,0,0,0,0,0c-1,0-1.8,0.8-1.8,1.8c0,0,0,0,0,0.1
	l0,0c0,1,0.8,1.9,1.8,1.9c0,0,0,0,0,0C173.3,95.2,174.1,94.4,174.1,93.3C174.1,93.4,174.1,93.3,174.1,93.3z"/>
<path class="st0" d="M175.4,96.6c0.5-0.2,0.7-0.4,0.6-0.8h-0.4v-1h0.9v0.9c0.1,0.6-0.4,1.2-1,1.3c0,0,0,0,0,0L175.4,96.6z"/>
<path class="st0" d="M180.3,93.3L180.3,93.3c0-1.4,1.1-2.6,2.6-2.6c0.7,0,1.5,0.3,2,0.9l-0.5,0.5c-0.4-0.5-0.9-0.7-1.5-0.8
	c-1,0-1.8,0.9-1.8,1.9c0,0,0,0,0,0l0,0c0,1,0.7,1.9,1.8,1.9c0,0,0,0,0.1,0c0.6,0,1.1-0.3,1.5-0.7l0.5,0.4c-0.9,1.1-2.5,1.3-3.6,0.4
	C180.7,94.9,180.3,94.1,180.3,93.3L180.3,93.3z"/>
<path class="st0" d="M185.9,90.8h0.7v1.3c0.3-0.8,1.1-1.4,2-1.4v0.8l0,0c-1.1,0-2,0.9-2,2c0,0.1,0,0.2,0,0.3v2h-0.7V90.8z"/>
<path class="st0" d="M191.6,95.2c0.6,0,1.2-0.2,1.6-0.7l0.5,0.4c-0.5,0.6-1.2,0.9-2,0.9c-1.4-0.1-2.5-1.3-2.4-2.8
	c0.1-1.3,1.1-2.3,2.3-2.4c1.3,0,2.3,1.1,2.3,2.4c0,0.1,0,0.2,0,0.2c0,0.1,0,0.1,0,0.3h-3.9C189.9,94.5,190.7,95.2,191.6,95.2z
	 M193,93c0-0.9-0.7-1.6-1.6-1.7c-0.9,0.1-1.6,0.8-1.6,1.7H193z"/>
<path class="st0" d="M194.5,93.3L194.5,93.3c0-1.4,1.1-2.6,2.6-2.6c0.7,0,1.5,0.3,2,0.9l-0.5,0.5c-0.4-0.5-0.9-0.7-1.5-0.8
	c-1,0-1.8,0.9-1.8,1.9c0,0,0,0,0,0l0,0c0,1,0.7,1.9,1.8,1.9c0,0,0,0,0.1,0c0.6,0,1.1-0.3,1.5-0.7l0.5,0.4c-0.9,1.1-2.5,1.3-3.6,0.4
	C194.9,94.9,194.5,94.1,194.5,93.3L194.5,93.3z"/>
<path class="st0" d="M202.1,95.2c0.6,0,1.2-0.3,1.6-0.7l0.4,0.4c-0.5,0.6-1.2,0.9-2,0.9c-1.4-0.1-2.5-1.3-2.4-2.8
	c0.1-1.3,1.1-2.3,2.3-2.4c1.3,0,2.3,1.1,2.3,2.4c0,0.1,0,0.2,0,0.2c0,0.1,0,0.1,0,0.3h-3.9C200.5,94.5,201.2,95.2,202.1,95.2z
	 M203.6,93c0-0.9-0.7-1.6-1.6-1.7c0,0,0,0,0,0c-0.9,0.1-1.6,0.8-1.6,1.7H203.6z"/>
<path class="st0" d="M210.3,95.2c0.6,0,1.2-0.2,1.6-0.7l0.5,0.4c-0.5,0.6-1.2,0.9-2,0.9c-1.4-0.1-2.5-1.3-2.4-2.8
	c0.1-1.3,1.1-2.3,2.3-2.4c1.3,0,2.3,1.1,2.3,2.4c0,0.1,0,0.1,0,0.2c0,0.1,0,0.1,0,0.3h-3.9C208.6,94.5,209.4,95.2,210.3,95.2z
	 M211.7,93c0-0.9-0.7-1.6-1.6-1.7c-0.9,0.1-1.6,0.8-1.6,1.7H211.7z"/>
<path class="st0" d="M213.6,88.8h0.7v7h-0.7V88.8z"/>
<path class="st0" d="M218.6,90.8h0.7v1c0.4-0.7,1.1-1.1,1.9-1.1c1.3,0,2.4,1.1,2.4,2.5c0,0,0,0.1,0,0.1l0,0c0.1,1.3-0.9,2.5-2.2,2.6
	c0,0-0.1,0-0.1,0c-0.8,0-1.5-0.4-1.9-1.1v2.5h-0.7V90.8z M222.8,93.3L222.8,93.3c0.1-1-0.7-1.8-1.6-1.9c0,0-0.1,0-0.1,0
	c-1,0-1.8,0.9-1.8,1.9c0,0,0,0,0,0l0,0c0,1,0.8,1.9,1.8,1.9c0,0,0,0,0,0c1,0,1.7-0.8,1.7-1.7C222.8,93.4,222.8,93.4,222.8,93.3z"/>
<path class="st0" d="M224.4,94.3L224.4,94.3c0-1.1,0.9-1.6,2.1-1.6c0.5,0,1,0.1,1.5,0.2v-0.2c0-0.9-0.5-1.3-1.5-1.3
	c-0.5,0-1,0.1-1.5,0.3l-0.2-0.6c0.6-0.3,1.2-0.4,1.8-0.4c0.6,0,1.2,0.2,1.6,0.5c0.4,0.4,0.5,0.9,0.5,1.5v3H228V95
	c-0.4,0.5-1.1,0.9-1.8,0.8C225.3,96,224.5,95.3,224.4,94.3C224.4,94.4,224.4,94.4,224.4,94.3z M228,94v-0.5c-0.5-0.1-1-0.2-1.4-0.2
	c-0.9,0-1.4,0.4-1.4,1l0,0c0,0.6,0.6,1,1.2,1C227.2,95.4,227.9,94.8,228,94C228,94,228,94,228,94z"/>
<path class="st0" d="M230.1,90.8h0.7v4.9h-0.7V90.8z M231.1,88.7l0.8,0.4l-1.1,1h-0.6L231.1,88.7z"/>
<path class="st0" d="M232,95.1l0.4-0.5c0.5,0.4,1.1,0.6,1.7,0.6c0.6,0,1-0.3,1-0.8l0,0c0-0.5-0.6-0.7-1.2-0.9s-1.6-0.5-1.6-1.4l0,0
	c0-0.8,0.7-1.5,1.6-1.4c0,0,0.1,0,0.1,0c0.6,0,1.2,0.2,1.8,0.5l-0.3,0.6c-0.4-0.3-0.9-0.5-1.5-0.5c-0.6,0-0.9,0.3-0.9,0.7l0,0
	c0,0.5,0.6,0.7,1.3,0.8s1.6,0.5,1.6,1.4l0,0c0,0.9-0.8,1.5-1.8,1.5C233.3,95.8,232.6,95.6,232,95.1z"/>
<path class="st0" d="M69.1,15c2.7,6.7,4.8,8.9,11.5,11.5c-6.7,2.7-8.9,4.8-11.5,11.5c-2.7-6.7-4.8-8.9-11.5-11.5
	C64.3,23.9,66.5,21.7,69.1,15"/>
<path class="st0" d="M89,7.8c2.1,5.2,3.7,6.9,8.9,8.9c-5.2,2.1-6.9,3.8-8.9,9c-2.1-5.2-3.8-6.9-9-9C85.3,14.7,87,13,89,7.8"/>
<polygon class="st0" points="57.5,45.2 53.7,43.6 48.5,45.7 57.5,49.3 90.9,35.8 80.6,31.7 75.5,33.8 80.6,35.8 "/>
<path class="st0" d="M57.5,101.2c-9.1,0-17.8-4.1-23.6-11.2l-4,1.6c11.5,15.2,33.2,18.3,48.4,6.8c2.6-1.9,4.8-4.2,6.8-6.8l-4-1.6
	C75.3,97.1,66.6,101.2,57.5,101.2z"/>
<path class="st0" d="M45.3,50.6v4.1l10.2,4.1v16.1l0,0v15.9c-6.2-0.6-9.9-3.9-13.8-7.5c-3.7-3.4-7.6-7.2-13.5-7.7V47.8l9.9,4v6.8
	l-3.9,9.9l3.7,1.5l2.2-5.6l2.2,5.6l3.7-1.5l-3.8-9.8V45.2l14.2-5.8c0.3,0.2,0.7,0.2,1.1,0.2c1.5,0,2.8-1.2,2.8-2.7
	c0-1.5-1.2-2.8-2.7-2.8c-1.1,0-2.2,0.7-2.6,1.7L44.7,40l-10.3-4.2l23.1-9.3l-5.1-2.1L24.2,35.8l15.4,6.2l-1.5,0.6v5L24.2,42v37.3
	c0.3,0,0.8,0,1.2,0c0.7,0,2.1,0.1,2.4,0.2c4.6,0.5,7.7,3.6,11.1,6.8c4.4,4,9.5,8.6,18.5,8.6s14-4.6,18.5-8.6c3.5-3.1,6.5-6.2,11-6.7
	c0.5,0,3-0.2,3.9-0.2V42.1L57.6,55.5L45.3,50.6z M59.5,74.9L59.5,74.9v-16l27.4-11v27.8c-6,0.5-9.8,4.3-13.6,7.7
	c-3.9,3.5-7.6,6.9-13.8,7.5L59.5,74.9z"/>
</svg>
