<?xml version="1.0" encoding="utf-8"?>
<!-- Generator: Adobe Illustrator 25.4.1, SVG Export Plug-In . SVG Version: 6.00 Build 0)  -->
<svg version="1.1" id="Layer_1" xmlns="http://www.w3.org/2000/svg" xmlns:xlink="http://www.w3.org/1999/xlink" x="0px" y="0px"
	 viewBox="0 0 262.7 118.26" style="enable-background:new 0 0 262.7 118.26;" xml:space="preserve">
<style type="text/css">
	.st0{fill:#002F6C;}
	.st1{fill:#DC052D;}
	.st2{fill:#98B4D4;}
	.st3{fill:#FFFFFF;}
</style>
<g>
	<g>
		<path class="st0" d="M24.75,93.15c-0.96,0.32-2.28,0.27-3.19-0.9l-2.34-3.01c-0.65-0.85-1.43-0.97-2.49-0.99v2.94
			c0,1.06,0.73,1.25,1.7,1.37c0.11,0.02,0.03,0.52-0.09,0.52h-4.6c-0.12,0-0.21-0.5-0.09-0.52c0.77-0.11,1.26-0.41,1.26-1.37v-6.77
			c0-1-0.53-1.29-1.26-1.49c-0.12-0.03-0.05-0.53,0.09-0.52c0.59,0.08,1.26,0.09,1.75,0.09c1.12,0,2.17-0.09,2.9-0.09
			c2.29,0,3.82,0.94,3.82,2.81c0,1.76-1.43,2.63-2.7,2.7v0.08c0.61,0,1.05,0.26,1.72,1.09l2.26,2.84c0.47,0.59,0.93,0.76,1.26,0.76
			C24.87,92.71,24.84,93.12,24.75,93.15z M20.3,85.65c0-1.62-1.03-2.43-2.38-2.43c-0.9,0-1.18,0.36-1.18,1.21v3.13h0.44
			C19.44,87.56,20.3,87.17,20.3,85.65z"/>
		<path class="st0" d="M27.2,92.57c0.88-0.23,1.56-0.36,1.56-1.49v-6.74c0-0.97-0.62-1.23-1.27-1.4c-0.12-0.03-0.05-0.53,0.08-0.52
			c1.11,0.12,3.02,0.09,3.95,0.09c1.38,0,2.38-0.06,3.63-0.09c0.36,0,0.36,0.24,0.29,0.59l-0.36,1.44c-0.05,0.21-0.42,0.21-0.49,0
			c-0.23-0.74-0.68-1.17-2.58-1.17c-1.06,0-1.41,0.27-1.41,1.06v2.47c0,0.4,0.2,0.47,0.5,0.47h0.33c1.23,0,2.29-0.12,2.91-0.68
			c0.15-0.14,0.49-0.11,0.35,0.2l-0.87,1.91c-0.12,0.27-0.35,0.24-0.52,0.02c-0.35-0.49-1.12-0.68-2-0.68h-0.21
			c-0.3,0-0.5,0.08-0.5,0.47v2.55c0,0.87,0.36,1.18,1.62,1.18c2.29,0,3.2-1.05,3.57-1.62c0.11-0.17,0.52-0.09,0.52,0.17
			c0,0.77-0.65,2.31-1.61,2.31c-0.85-0.05-1.68-0.09-2.96-0.09c-1.4,0-3.05-0.05-4.43,0.09C27.14,93.13,27.08,92.6,27.2,92.57z"/>
		<path class="st0" d="M42.35,89.02v2.19c0,1.06,0.73,1.25,1.7,1.37c0.11,0.02,0.03,0.52-0.09,0.52h-4.6c-0.12,0-0.21-0.5-0.09-0.52
			c0.77-0.11,1.26-0.41,1.26-1.37v-6.77c0-1-0.53-1.29-1.26-1.49c-0.12-0.03-0.05-0.53,0.09-0.52c0.59,0.08,1.26,0.09,1.75,0.09
			c1.12,0,2.06-0.09,2.84-0.09c2.35,0,4.3,0.87,4.3,3.25C48.24,88.38,45.71,89.52,42.35,89.02z M42.35,84.43v3.84
			c2.58,0.36,3.93-0.26,3.93-2.25c0-1.81-1.15-2.81-2.72-2.81C42.61,83.22,42.35,83.55,42.35,84.43z"/>
		<path class="st0" d="M52.53,89.11v-4.77c0-0.96-0.49-1.28-1.23-1.37c-0.12-0.02-0.03-0.52,0.09-0.52h4.14
			c0.12,0,0.21,0.5,0.09,0.52c-0.61,0.08-1.21,0.3-1.21,1.37v4.84c0,2.12,1.23,3.11,2.84,3.11c1.65,0,2.97-0.99,2.97-3.11v-4.84
			c0-0.99-0.56-1.26-1.31-1.37c-0.11-0.02-0.03-0.52,0.09-0.52h3.42c0.11,0,0.2,0.5,0.08,0.52c-0.61,0.08-1.21,0.3-1.21,1.37v4.75
			c0,2.79-1.81,4.23-4.22,4.23C54.92,93.33,52.53,92.19,52.53,89.11z M56.99,78.68c0.27-0.39,1.55,0.77,1.18,1.05l-1.99,1.5
			c-0.2,0.15-0.73-0.33-0.58-0.55L56.99,78.68z"/>
		<path class="st0" d="M74.66,90.02c0,1.88-1.72,3.1-4.25,3.1c-0.73,0-1.58-0.09-2.7-0.09c-0.96,0-1.68,0.02-2.38,0.09
			c-0.14,0.02-0.21-0.52-0.09-0.55c0.88-0.23,1.56-0.36,1.56-1.49v-6.74c0-0.97-0.62-1.23-1.27-1.4c-0.12-0.03-0.05-0.53,0.08-0.52
			c0.62,0.08,1.35,0.09,1.84,0.09c1.21,0,2.11-0.09,2.78-0.09c1.96,0,3.57,0.82,3.58,2.49c0.02,1.23-0.85,2.08-1.91,2.29v0.09
			C73.29,87.3,74.66,88.32,74.66,90.02z M68.62,84.34v2.7h1.56c1.09,0,1.73-0.55,1.73-1.72c0-1.44-0.97-2.11-2.22-2.11
			C68.89,83.22,68.62,83.49,68.62,84.34z M72.7,90.35c0-1.67-1.11-2.55-2.52-2.55h-1.56v3.28c0,0.83,0.42,1.25,1.75,1.25
			C71.7,92.33,72.7,91.93,72.7,90.35z"/>
		<path class="st0" d="M77.56,92.57c0.88-0.23,1.56-0.36,1.56-1.49v-6.74c0-1.06-0.62-1.28-1.27-1.37
			c-0.12-0.02-0.03-0.52,0.08-0.52h4.19c0.11,0,0.18,0.5,0.08,0.52c-0.64,0.08-1.24,0.3-1.24,1.37v6.74c0,0.87,0.36,1.18,1.62,1.18
			c2.29,0,3.2-1.05,3.57-1.62c0.11-0.17,0.52-0.09,0.52,0.17c0,0.77-0.65,2.31-1.61,2.31c-0.85-0.05-1.68-0.09-2.96-0.09
			c-1.4,0-3.05-0.05-4.43,0.09C77.5,93.13,77.44,92.6,77.56,92.57z"/>
		<path class="st0" d="M89.33,92.57c0.77-0.11,1.26-0.41,1.26-1.37v-6.86c0-0.96-0.49-1.26-1.26-1.37
			c-0.12-0.02-0.03-0.52,0.09-0.52h4.16c0.12,0,0.21,0.5,0.09,0.52c-0.65,0.09-1.26,0.3-1.26,1.37v6.86c0,1.06,0.61,1.28,1.26,1.37
			c0.12,0.02,0.03,0.52-0.09,0.52h-4.16C89.3,93.09,89.21,92.59,89.33,92.57z"/>
		<path class="st0" d="M96.88,87.97c0-2.63,1.61-5.75,5.86-5.75c1.76,0,3.28,0.55,3.1,1.08l-0.2,0.59
			c-0.55,1.62-1.14-0.46-3.84-0.46c-2.17,0-3.23,1.41-3.23,3.6c0,3.42,2.6,4.84,4.68,4.84c0.27,0,1.65-0.21,2.44-0.71
			c0.12-0.08,0.44,0.27,0.35,0.41c-0.65,0.96-2.69,1.76-3.16,1.76C100.32,93.33,96.88,91.84,96.88,87.97z"/>
		<path class="st0" d="M119.89,93.09h-4.01c-0.2,0-0.21-0.49-0.05-0.52c0.56-0.11,1.17-0.3,0.61-1.61l-0.17-0.38
			c-0.15-0.36-0.41-0.39-0.87-0.39h-3.1c-0.46,0-0.71,0.03-0.87,0.39l-0.15,0.38c-0.53,1.31,0.05,1.5,0.77,1.61
			c0.2,0.03,0.15,0.52-0.05,0.52h-3.28c-0.18,0-0.23-0.49-0.05-0.52c0.62-0.11,0.99-0.32,1.55-1.61l2.57-5.89
			c0.59-1.34,0.77-1.96,0.77-2.53c0-0.09,1.06-0.33,1.11-0.23l3.7,8.64c0.55,1.29,0.91,1.53,1.52,1.62
			C120.14,92.6,120.07,93.09,119.89,93.09z M115.66,89.09l-1.78-4.25l-1.79,4.25c-0.09,0.21,0.14,0.24,0.35,0.24h2.87
			C115.52,89.34,115.75,89.31,115.66,89.09z"/>
		<path class="st0" d="M127.25,92.57c0.88-0.23,1.56-0.36,1.56-1.49v-6.74c0-0.97-0.62-1.23-1.27-1.4
			c-0.12-0.03-0.05-0.53,0.08-0.52c0.62,0.08,1.26,0.09,1.9,0.09c1.18,0,2.25-0.09,3.02-0.09c3.67,0,5.66,2.19,5.66,5.12
			c0,2.91-1.99,5.57-5.68,5.57c-0.73,0-1.67-0.09-2.79-0.09c-0.94,0-1.68,0.02-2.38,0.09C127.18,93.13,127.12,92.6,127.25,92.57z
			 M136.37,88.41c0-2.9-1.58-5.18-4.31-5.18c-1.08,0-1.43,0.33-1.43,1.11v6.74c0,0.82,0.56,1.23,2.03,1.23
			C135.14,92.31,136.37,90.98,136.37,88.41z"/>
		<path class="st0" d="M141.49,87.83c0-3.07,2.19-5.62,5.51-5.62c3.17,0,5.48,2.32,5.48,5.48c0,3.08-2.17,5.63-5.51,5.63
			C143.81,93.33,141.49,90.99,141.49,87.83z M150.67,88.55c0-3.07-2.08-5.3-4.27-5.3c-1.34,0-3.1,0.88-3.1,3.73
			c0,3.1,2.08,5.31,4.25,5.31C148.89,92.3,150.67,91.42,150.67,88.55z"/>
		<path class="st0" d="M169,93.09h-3.96c-0.11,0-0.18-0.5-0.09-0.52c0.64-0.11,1.11-0.41,1.06-1.37l-0.29-5.1l-2.46,5.01
			c-0.32,0.65-0.56,1.32-0.61,1.56c-0.03,0.18-0.35,0.27-0.59,0.27c-0.23,0-0.38-0.09-0.47-0.27l-3.51-6.65l-0.23,5.18
			c-0.05,1.06,0.58,1.31,1.06,1.37c0.12,0.02,0.03,0.52-0.08,0.52h-3.14c-0.12,0-0.21-0.5-0.09-0.52c0.65-0.08,1.2-0.3,1.26-1.37
			l0.49-8.71c0.02-0.26,0.59-0.27,0.74,0l4.4,8.23l4.08-8.23c0.14-0.27,0.74-0.26,0.76,0l0.49,8.71c0.06,1.06,0.61,1.29,1.24,1.37
			C169.19,92.59,169.1,93.09,169,93.09z"/>
		<path class="st0" d="M172.11,92.57c0.77-0.11,1.26-0.41,1.26-1.37v-6.86c0-0.96-0.49-1.26-1.26-1.37
			c-0.12-0.02-0.03-0.52,0.09-0.52h4.16c0.12,0,0.21,0.5,0.09,0.52c-0.65,0.09-1.26,0.3-1.26,1.37v6.86c0,1.06,0.61,1.28,1.26,1.37
			c0.12,0.02,0.03,0.52-0.09,0.52h-4.16C172.08,93.09,171.99,92.59,172.11,92.57z"/>
		<path class="st0" d="M188.93,92.95l-7.23-7.56v5.77c0,1.03,0.61,1.2,1.47,1.41c0.12,0.03,0.06,0.52-0.09,0.52h-3.6
			c-0.12,0-0.21-0.47-0.08-0.52c0.64-0.21,1.24-0.33,1.24-1.41v-5.89c0-1.08-0.17-1.59-0.56-2.12c-0.14-0.18-0.27-0.3-0.27-0.35
			c0-0.14,0.09-0.33,0.3-0.33h1.12c0.15,0,0.26,0.02,0.36,0.14l7.07,7.48v-5.71c0-1.08-0.68-1.2-1.47-1.4
			c-0.12-0.03-0.06-0.52,0.09-0.52h3.6c0.12,0,0.2,0.49,0.08,0.52c-0.67,0.2-1.24,0.32-1.24,1.4v5.9c0,1,0.03,2.11,0.18,2.67
			c0.06,0.23-0.18,0.29-0.43,0.29C189.24,93.24,189.1,93.13,188.93,92.95z"/>
		<path class="st0" d="M194.02,92.57c0.77-0.11,1.26-0.41,1.26-1.37v-6.86c0-0.96-0.49-1.26-1.26-1.37
			c-0.12-0.02-0.03-0.52,0.09-0.52h4.16c0.12,0,0.21,0.5,0.09,0.52c-0.65,0.09-1.26,0.3-1.26,1.37v6.86c0,1.06,0.61,1.28,1.26,1.37
			c0.12,0.02,0.03,0.52-0.09,0.52h-4.16C193.99,93.09,193.9,92.59,194.02,92.57z"/>
		<path class="st0" d="M201.57,87.97c0-2.63,1.61-5.75,5.86-5.75c1.76,0,3.28,0.55,3.1,1.08l-0.2,0.59
			c-0.55,1.62-1.14-0.46-3.84-0.46c-2.17,0-3.23,1.41-3.23,3.6c0,3.42,2.6,4.84,4.67,4.84c0.27,0,1.65-0.21,2.44-0.71
			c0.12-0.08,0.44,0.27,0.35,0.41c-0.65,0.96-2.69,1.76-3.16,1.76C205.02,93.33,201.57,91.84,201.57,87.97z"/>
		<path class="st0" d="M224.59,93.09h-4.01c-0.2,0-0.21-0.49-0.05-0.52c0.56-0.11,1.17-0.3,0.61-1.61l-0.17-0.38
			c-0.15-0.36-0.41-0.39-0.87-0.39h-3.1c-0.46,0-0.71,0.03-0.87,0.39l-0.15,0.38c-0.53,1.31,0.05,1.5,0.77,1.61
			c0.2,0.03,0.15,0.52-0.05,0.52h-3.28c-0.18,0-0.23-0.49-0.05-0.52c0.62-0.11,0.99-0.32,1.55-1.61l2.57-5.89
			c0.59-1.34,0.77-1.96,0.77-2.53c0-0.09,1.06-0.33,1.11-0.23l3.7,8.64c0.55,1.29,0.91,1.53,1.52,1.62
			C224.83,92.6,224.77,93.09,224.59,93.09z M220.35,89.09l-1.78-4.25l-1.79,4.25c-0.09,0.21,0.14,0.24,0.35,0.24H220
			C220.21,89.34,220.44,89.31,220.35,89.09z"/>
		<path class="st0" d="M236.95,92.95l-7.22-7.56v5.77c0,1.03,0.61,1.2,1.47,1.41c0.12,0.03,0.06,0.52-0.09,0.52h-3.6
			c-0.12,0-0.21-0.47-0.08-0.52c0.64-0.21,1.24-0.33,1.24-1.41v-5.89c0-1.08-0.17-1.59-0.56-2.12c-0.14-0.18-0.27-0.3-0.27-0.35
			c0-0.14,0.09-0.33,0.3-0.33h1.12c0.15,0,0.26,0.02,0.36,0.14l7.07,7.48v-5.71c0-1.08-0.68-1.2-1.47-1.4
			c-0.12-0.03-0.06-0.52,0.09-0.52h3.6c0.12,0,0.2,0.49,0.08,0.52c-0.67,0.2-1.24,0.32-1.24,1.4v5.9c0,1,0.03,2.11,0.18,2.67
			c0.06,0.23-0.18,0.29-0.42,0.29C237.25,93.24,237.11,93.13,236.95,92.95z"/>
		<path class="st0" d="M252.61,93.09h-4.01c-0.2,0-0.21-0.49-0.05-0.52c0.56-0.11,1.17-0.3,0.61-1.61L249,90.58
			c-0.15-0.36-0.41-0.39-0.87-0.39h-3.1c-0.46,0-0.71,0.03-0.87,0.39l-0.15,0.38c-0.53,1.31,0.05,1.5,0.77,1.61
			c0.2,0.03,0.15,0.52-0.05,0.52h-3.28c-0.18,0-0.23-0.49-0.05-0.52c0.62-0.11,0.99-0.32,1.55-1.61l2.57-5.89
			c0.59-1.34,0.77-1.96,0.77-2.53c0-0.09,1.06-0.33,1.11-0.23l3.7,8.64c0.55,1.29,0.91,1.53,1.52,1.62
			C252.86,92.6,252.8,93.09,252.61,93.09z M248.38,89.09l-1.78-4.25l-1.79,4.25c-0.09,0.21,0.14,0.24,0.35,0.24h2.87
			C248.24,89.34,248.47,89.31,248.38,89.09z"/>
	</g>
	<g>
		<path class="st0" d="M13.72,72.23v-0.02c0-2.07,1.52-3.91,3.79-3.91c1.27,0,2.06,0.37,2.82,1l-0.55,0.65
			c-0.58-0.51-1.23-0.86-2.3-0.86c-1.67,0-2.87,1.41-2.87,3.1v0.02c0,1.8,1.15,3.14,2.99,3.14c0.86,0,1.66-0.34,2.18-0.76v-1.88
			h-2.3v-0.77h3.12v3.01c-0.7,0.63-1.76,1.16-3.03,1.16C15.19,76.12,13.72,74.39,13.72,72.23z"/>
		<path class="st0" d="M23.22,72.23v-0.02c0-2.08,1.57-3.91,3.86-3.91c2.3,0,3.84,1.8,3.84,3.89c0.01,0.01,0.01,0.01,0,0.02
			c0,2.08-1.57,3.91-3.86,3.91C24.76,76.12,23.22,74.31,23.22,72.23z M30.04,72.23v-0.02c0-1.72-1.25-3.12-2.98-3.12
			c-1.73,0-2.96,1.38-2.96,3.1v0.02c0,1.72,1.25,3.12,2.98,3.12S30.04,73.95,30.04,72.23z"/>
		<path class="st0" d="M33.76,68.43h3.22c0.86,0,1.54,0.25,1.98,0.67c0.31,0.32,0.49,0.72,0.49,1.21v0.02c0,0.98-0.6,1.49-1.2,1.75
			c0.9,0.27,1.62,0.79,1.62,1.82v0.02c0,1.3-1.09,2.06-2.74,2.06h-3.36V68.43z M36.83,71.8c1.03,0,1.74-0.46,1.74-1.35v-0.02
			c0-0.75-0.59-1.23-1.67-1.23h-2.3v2.6H36.83z M37.14,75.22c1.14,0,1.86-0.51,1.86-1.35v-0.02c0-0.82-0.69-1.3-2.01-1.3H34.6v2.67
			H37.14z"/>
		<path class="st0" d="M42.66,68.43h0.85v7.56h-0.85V68.43z"/>
		<path class="st0" d="M46.75,68.43h5.46v0.78H47.6v2.58h4.12v0.78H47.6v2.65h4.66v0.78h-5.52V68.43z"/>
		<path class="st0" d="M55.01,68.43h3.25c0.93,0,1.67,0.28,2.15,0.75c0.37,0.37,0.58,0.9,0.58,1.49v0.02c0,1.25-0.86,1.99-2.05,2.2
			l2.32,3.09h-1.05l-2.19-2.94H58h-2.14v2.94h-0.85V68.43z M58.19,72.28c1.13,0,1.94-0.58,1.94-1.56v-0.02
			c0-0.93-0.71-1.49-1.93-1.49h-2.33v3.07H58.19z"/>
		<path class="st0" d="M63.85,68.43h0.8l4.76,6.06v-6.06h0.83v7.56h-0.68l-4.88-6.2v6.2h-0.83V68.43z"/>
		<path class="st0" d="M73.07,72.23v-0.02c0-2.08,1.57-3.91,3.86-3.91c2.3,0,3.84,1.8,3.84,3.89c0.01,0.01,0.01,0.01,0,0.02
			c0,2.08-1.57,3.91-3.86,3.91C74.62,76.12,73.07,74.31,73.07,72.23z M79.9,72.23v-0.02c0-1.72-1.25-3.12-2.98-3.12
			c-1.73,0-2.96,1.38-2.96,3.1v0.02c0,1.72,1.25,3.12,2.98,3.12C78.66,75.33,79.9,73.95,79.9,72.23z"/>
		<path class="st0" d="M87.88,68.43h2.62c2.37,0,4.02,1.63,4.02,3.76v0.02c0,2.13-1.64,3.78-4.02,3.78h-2.62V68.43z M90.5,75.2
			c1.91,0,3.13-1.3,3.13-2.97v-0.02c0-1.67-1.22-2.99-3.13-2.99h-1.77v5.98H90.5z"/>
		<path class="st0" d="M97.35,68.43h5.46v0.78h-4.61v2.58h4.12v0.78h-4.12v2.65h4.66v0.78h-5.52V68.43z"/>
		<path class="st0" d="M109.88,68.43h0.85v6.77h4.25v0.79h-5.11V68.43z"/>
		<path class="st0" d="M120.39,68.37h0.8l3.44,7.61h-0.92l-0.88-2h-4.11l-0.9,2h-0.87L120.39,68.37z M122.5,73.22l-1.72-3.85
			l-1.73,3.85H122.5z"/>
	</g>
	<g>
		<path class="st0" d="M40.22,16.81c-0.17,0-0.31,0.14-0.31,0.31v5.37c0,0.17,0.14,0.31,0.31,0.31h1.01c0.17,0,0.31-0.14,0.31-0.31
			v-5.37c0-0.17-0.14-0.31-0.31-0.31H40.22z"/>
		<path class="st0" d="M42.83,16.81c-0.17,0-0.31,0.14-0.31,0.31v5.37c0,0.17,0.14,0.31,0.31,0.31h1.01c0.17,0,0.31-0.14,0.31-0.31
			v-5.37c0-0.17-0.14-0.31-0.31-0.31H42.83z"/>
		<path class="st0" d="M37.59,16.81c-0.17,0-0.31,0.14-0.31,0.31v5.37c0,0.17,0.14,0.31,0.31,0.31h1c0.17,0,0.31-0.14,0.31-0.31
			v-5.37c0-0.17-0.14-0.31-0.31-0.31H37.59z"/>
		<path class="st0" d="M35.55,16.38h10.33c0.1,0,0.17-0.08,0.17-0.17v-0.4c0-0.09-0.08-0.17-0.17-0.17H35.55
			c-0.1,0-0.17,0.08-0.17,0.17v0.4C35.38,16.3,35.45,16.38,35.55,16.38z"/>
		<path class="st0" d="M50.56,25.92c0.34,0.25,0.72,0.55,1.15,0.9c0.99,0.81,1.82,1.65,2.56,2.44c2.45,2.59,3.81,5.04,5.15,7.67
			c0.74,1.46,1.22,2.81,1.64,4.01c0.08,0.23,0.75,2.09,1.18,4.21c0.5,2.49,0.75,5.28,0.75,5.28l3.82,0c0,0,0-0.03-0.01-0.06
			l0.15,0.06c0,0,0-0.02,0-0.03c-0.42-11.53-7.67-21.31-17.82-25.41c-0.01-0.01-0.04-0.02-0.04-0.02s0.38,0.2,0.84,0.52
			C50.12,25.62,50.34,25.77,50.56,25.92z"/>
		<path class="st0" d="M60.41,50.36c-0.03-0.29-0.07-0.57-0.1-0.85c-0.22-2.47-0.78-5.93-2.19-9.41c-0.37-0.92-0.79-1.84-1.3-2.74
			c-0.14-0.25-0.28-0.48-0.43-0.72c-2.71-5.01-6.58-8.84-11.08-10.79c0,0,0,0,0,0c-0.01,0-0.02-0.01-0.02-0.01l0.03,0.04
			c0,0,1.3,1.25,2.44,3.05c2.83,4.43,4.77,9.61,5.44,16.02c0.28,2.66,0.26,4.76,0.24,4.23c0.01,0.38,0.03,0.99,0.03,1.2l-0.02,0.08
			l0.79,0l6.11-0.02l0,0l0.03,0C60.42,50.43,60.41,50.38,60.41,50.36z"/>
		<path class="st0" d="M44.72,15.09c-0.02-2.26-1.76-4.09-3.93-4.13v-0.68h1.08v-0.12c0,0,0,0,0,0v-0.4c0-0.02-0.02-0.04-0.04-0.04
			h-0.16c-0.02,0-0.04,0.02-0.04,0.04v0.39h-0.85V8.62h0.02c0.03,0,0.05-0.02,0.05-0.05V8.15c0-0.03-0.02-0.05-0.05-0.05h-0.19
			c-0.03,0-0.05,0.02-0.05,0.05v0.43c0,0.03,0.02,0.05,0.05,0.05h0.03v1.54h-0.86V9.77c0-0.02-0.02-0.04-0.04-0.04h-0.16
			c-0.02,0-0.04,0.02-0.04,0.04v0.4c0,0,0,0,0,0v0.12h1.1v0.68c-2.17,0.04-3.91,1.87-3.92,4.14c0,0.01,0,0.02,0,0.02l7.99,0
			C44.72,15.13,44.72,15.1,44.72,15.09z"/>
		<path class="st0" d="M35.55,24.17h10.33c0.1,0,0.17-0.08,0.17-0.17v-0.4c0-0.09-0.08-0.17-0.17-0.17H35.55
			c-0.1,0-0.17,0.08-0.17,0.17V24C35.38,24.09,35.45,24.17,35.55,24.17z"/>
		<path class="st0" d="M42.18,26.42c-0.04-0.03-0.11-0.09-0.11-0.09l0,24.11l8.84,0.03c0,0,0-0.25,0-0.37
			C50.92,39.81,47.37,30.89,42.18,26.42z"/>
		<path class="st0" d="M62.8,57.09c0.17,0,0.31-0.14,0.31-0.31v-2.34c0-0.17-0.14-0.31-0.31-0.31h-2.34c-0.17,0-0.31,0.14-0.31,0.31
			v2.34c0,0.17,0.14,0.31,0.31,0.31H62.8z"/>
		<path class="st0" d="M30.44,57.09c0.17,0,0.31-0.14,0.31-0.31v-2.34c0-0.17-0.14-0.31-0.31-0.31H28.1c-0.17,0-0.31,0.14-0.31,0.31
			v2.34c0,0.17,0.14,0.31,0.31,0.31H30.44z"/>
		<path class="st0" d="M53.35,57.09c0.17,0,0.31-0.14,0.31-0.31v-2.34c0-0.17-0.14-0.31-0.31-0.31h-2.34
			c-0.17,0-0.31,0.14-0.31,0.31v2.34c0,0.17,0.14,0.31,0.31,0.31H53.35z"/>
		<path class="st0" d="M41.9,57.09c0.17,0,0.31-0.14,0.31-0.31v-2.34c0-0.17-0.14-0.31-0.31-0.31h-2.34c-0.17,0-0.31,0.14-0.31,0.31
			v2.34c0,0.17,0.14,0.31,0.31,0.31H41.9z"/>
		<path class="st0" d="M68.31,52.4h-0.13c0,0,0,0,0,0h-5.06v-0.88c0-0.14-0.12-0.26-0.26-0.26h-2.44c-0.14,0-0.26,0.12-0.26,0.26
			v0.88h-6.49v-0.88c0-0.14-0.12-0.26-0.26-0.26h-2.44c-0.14,0-0.26,0.12-0.26,0.26v0.88h-8.5v-0.88c0-0.14-0.12-0.26-0.26-0.26
			h-2.44c-0.14,0-0.26,0.12-0.26,0.26v0.88h-8.5v-0.88c0-0.14-0.12-0.26-0.26-0.26h-2.44c-0.14,0-0.26,0.12-0.26,0.26v0.88H21.3
			v-0.88c0-0.14-0.12-0.26-0.26-0.26H18.6c-0.14,0-0.26,0.12-0.26,0.26v0.88H13.3c0,0,0,0,0,0h-0.14c-0.1,0-0.17,0.08-0.17,0.17
			v0.46c0,0.1,0.08,0.17,0.17,0.17l55.15,0c0.1,0,0.17-0.08,0.17-0.17V52.9v-0.18v-0.14C68.49,52.48,68.41,52.4,68.31,52.4z"/>
		<path class="st0" d="M20.99,57.09c0.17,0,0.31-0.14,0.31-0.31v-2.34c0-0.17-0.14-0.31-0.31-0.31h-2.34
			c-0.17,0-0.31,0.14-0.31,0.31v2.34c0,0.17,0.14,0.31,0.31,0.31H20.99z"/>
		<path class="st0" d="M39.4,50.45l0-24.12c0,0-0.07,0.06-0.11,0.09c-5.19,4.47-8.73,13.4-8.73,23.68c0,0.13,0,0.37,0,0.37
			L39.4,50.45z"/>
		<path class="st0" d="M14.66,50.45l1.44,0l1.35,0l0-0.01l1.04,0c0,0,0.25-2.79,0.75-5.28c0.43-2.13,1.1-3.99,1.18-4.22
			c0.42-1.21,0.9-2.56,1.64-4.01c1.33-2.62,2.69-5.08,5.15-7.67c0.75-0.79,1.58-1.63,2.56-2.44c0.43-0.35,0.81-0.65,1.15-0.9
			c0.22-0.15,0.44-0.3,0.62-0.43c0.46-0.32,0.84-0.52,0.84-0.52s-0.03,0.01-0.04,0.02c-10.15,4.1-17.4,13.89-17.82,25.42
			c0,0.01,0,0.03,0,0.03L14.66,50.45C14.66,50.45,14.66,50.45,14.66,50.45z"/>
		<path class="st0" d="M33.69,28.94c1.15-1.8,2.44-3.05,2.44-3.05l0.03-0.04c0,0-0.01,0.01-0.02,0.01c0,0,0,0,0,0
			c-4.5,1.96-8.37,5.79-11.08,10.8c-0.14,0.24-0.29,0.47-0.42,0.72c-0.5,0.9-0.92,1.82-1.3,2.74c-1.41,3.48-1.98,6.94-2.19,9.41
			c-0.03,0.28-0.07,0.56-0.1,0.85c0,0.02-0.01,0.07-0.01,0.07l0.03,0l0,0l5.92,0.02l0.99,0l-0.02-0.08c0-0.21,0.02-0.82,0.03-1.2
			c-0.02,0.53-0.03-1.57,0.24-4.23C28.91,38.55,30.86,33.37,33.69,28.94z"/>
		<path class="st0" d="M68.17,57.78l-54.88,0c-0.17,0-0.31,0.14-0.31,0.31v1.3c0,0.17,0.14,0.31,0.31,0.31h54.88
			c0.17,0,0.31-0.14,0.31-0.31v-1.3C68.48,57.92,68.35,57.78,68.17,57.78z"/>
	</g>
	<polyline class="st1" points="68.22,105.42 13.03,105.42 13.03,102.42 68.22,102.42 	"/>
</g>
</svg>
