<svg xmlns="http://www.w3.org/2000/svg" width="22.756" height="16" viewBox="0 0 22.756 16"><defs><style>.a{fill:#003579;}</style></defs><path class="a" d="M37.213,66.5A2.859,2.859,0,0,0,35.2,64.479C33.427,64,26.311,64,26.311,64s-7.116,0-8.891.479A2.859,2.859,0,0,0,15.409,66.5a32.194,32.194,0,0,0,0,11.026,2.817,2.817,0,0,0,2.012,1.993C19.2,80,26.311,80,26.311,80s7.116,0,8.891-.479a2.817,2.817,0,0,0,2.012-1.993,32.194,32.194,0,0,0,0-11.026Zm-13.23,8.9V68.633l5.948,3.384L23.984,75.4Z" transform="translate(-14.933 -64)"/></svg>